<svg xmlns="http://www.w3.org/2000/svg" xmlns:xlink="http://www.w3.org/1999/xlink" height="503.5" preserveAspectRatio="xMidYMid meet" version="1.0" viewBox="-0.5 -2.9 534.0 503.5" width="534" zoomAndPan="magnify"><g><g><g id="change1_44"><path d="M4.1,52.1C28.4,29.3,59,13.6,91.6,6.3c33.2-7.4,68-6,100.3,4.9c36.7,12.3,68.8,34.5,101.9,54 c31.5,18.6,65.6,36.1,102.6,39.2c30.3,2.5,63.2-5.1,85.8-26.4c2.8-2.7,5.5-5.5,7.9-8.6c0.7-0.9-0.5-2.1-1.2-1.2 c-20.2,25.3-53.4,35.7-84.9,34.9c-37.7-1-72.8-18.1-104.8-36.7c-32.9-19.1-64.4-41.2-100.2-54.5c-31.5-11.7-65.4-14.8-98.6-9 C68.2,8.4,37.4,22.1,12.1,42.7c-3.2,2.6-6.3,5.3-9.3,8.2C2,51.7,3.3,52.9,4.1,52.1" fill="inherit"/></g></g><g><g id="change1_52"><path d="M488.9,75.8c-20.9,24.4-54.7,33.5-85.8,32.5c-37-1.2-71.8-17.1-103.8-34.7c-32.9-18-64.7-38.8-100.3-51.3 c-31.7-11.1-65.6-13.9-98.8-8.7c-31.9,5-62.9,17.4-88.7,37c-3,2.3-5.9,4.7-8.8,7.1c-0.8,0.7,0.4,2,1.2,1.2 c24.9-21.6,55.8-35.7,88-42.2c33.1-6.6,67.7-5.2,99.9,5c36.4,11.5,68.8,32.4,101.9,50.8c31.6,17.6,65.6,34,102.2,37 c30.1,2.5,63.1-4.2,86.2-24.6c2.8-2.5,5.4-5.1,7.8-8C490.8,76.1,489.6,74.9,488.9,75.8" fill="inherit"/></g></g><g><g id="change1_23"><path d="M488.9,83.2c-21.4,23.2-55.2,31.2-85.8,30.2c-36.8-1.2-71.5-16-103.8-32.6c-32.8-16.9-64.6-36.3-99.9-48 c-31.9-10.5-65.8-13.3-99-8.7c-31.6,4.4-62.7,15.4-88.9,33.7c-3,2.1-6,4.4-8.9,6.7c-0.9,0.7,0.4,1.9,1.2,1.2 C29.3,45.5,60.3,33,92.1,27.2c33.4-6,68.1-4.4,100.6,5.3c36,10.8,68.4,30.3,101.5,47.6c31.8,16.6,65.6,31.7,101.8,34.6 c29.7,2.4,62.5-3.4,86.1-22.7c2.8-2.3,5.5-4.9,8-7.6C490.9,83.7,489.7,82.4,488.9,83.2" fill="inherit"/></g></g><g><g id="change1_24"><path d="M489,90.7c-22.1,22.1-56.1,28.9-86.3,27.8c-36.4-1.4-71.1-15.1-103.5-30.7c-32.6-15.7-64.3-33.7-99.1-44.5 c-32.2-10-66.4-12.7-99.9-8.5C69.2,38.7,38.5,48.3,12,65c-3.1,2-6.2,4.1-9.2,6.2c-0.9,0.6,0,2.2,0.9,1.5 C29.3,54.1,59.9,43,91,37.9c33.4-5.5,68.2-4.1,100.9,4.8c35.9,9.8,68.4,28.1,101.7,44.3c32.1,15.6,65.9,29.8,101.8,32.8 c29.7,2.4,63-2.5,87.2-21.2c2.7-2.1,5.2-4.3,7.6-6.7C491,91.2,489.8,90,489,90.7" fill="inherit"/></g></g><g><g id="change1_13"><path d="M489.1,98.2c-22.7,20.9-56.8,26.6-86.7,25.4c-36.1-1.4-70.6-14.1-103.2-28.7c-32.5-14.5-64.3-31.2-98.7-41.1 c-32.4-9.3-66.6-11.9-100.1-8.3c-30.8,3.3-61.6,11.6-88.7,27c-3.1,1.7-6.1,3.6-9,5.5c-0.9,0.6-0.1,2.1,0.9,1.5 c26.3-17.1,57-26.8,87.9-31.2c33.7-4.8,68.6-3.3,101.7,5.3c35.1,9.1,67.5,25.8,100.4,40.7c32.2,14.6,65.9,27.7,101.5,30.6 c29.6,2.4,63-1.8,87.8-19.4c2.6-1.9,5.1-3.9,7.5-6.1C491.1,98.7,489.9,97.5,489.1,98.2" fill="inherit"/></g></g><g><g id="change1_37"><path d="M489.1,105.7c-11.2,9.4-25.1,15.1-39.2,18.6c-15.6,3.9-31.8,5.1-47.8,4.5c-35.6-1.4-69.9-13.1-102.6-26.5 c-32.8-13.5-64.9-29.1-99.3-38.2c-32.5-8.6-66.6-11-100-7.9c-30.4,2.8-61,9.9-88.5,23.7c-3.1,1.6-6.2,3.2-9.2,5 c-1,0.6-0.1,2.1,0.9,1.5c26.8-15.5,57.6-23.8,88.2-27.5c33.6-4,68.1-2.6,101,5.2c34.7,8.2,67.1,23.5,99.9,37.2 c32.6,13.7,66.5,25.9,102,28.8c15.7,1.3,31.7,0.6,47.2-2.2c14.3-2.6,28.6-7.3,40.9-15.2c2.7-1.7,5.2-3.6,7.7-5.7 C491.2,106.2,490,105,489.1,105.7" fill="inherit"/></g></g><g><g id="change1_8"><path d="M489.3,113.1c-11.5,8.7-25.3,13.7-39.2,16.9c-15.7,3.5-31.9,4.6-48,4c-35.3-1.4-69.5-12-102.3-24.3 c-33-12.4-65.3-26.7-99.6-35.1c-32.7-7.9-66.8-10.2-100.3-7.7c-30.1,2.2-60.5,8.2-88.2,20.3c-3.1,1.4-6.2,2.8-9.3,4.4 c-1,0.5-0.1,2,0.9,1.5c27.2-13.8,57.8-20.7,88-23.7c33.6-3.4,67.9-2,100.9,5.1c34.7,7.5,67.3,21.5,100.3,34.2 c32.6,12.5,66.2,23.6,101.2,26.5c15.8,1.3,31.7,0.8,47.3-1.7c14.2-2.3,28.4-6.3,40.9-13.4c2.9-1.6,5.6-3.4,8.2-5.4 C491.1,113.9,490.2,112.4,489.3,113.1" fill="inherit"/></g></g><g><g id="change1_47"><path d="M489.4,120.6c-11.8,7.9-25.6,12.4-39.4,15.1c-15.9,3.2-32.3,4.1-48.5,3.4c-35.1-1.5-69.3-11.1-102.3-22.5 c-32.8-11.2-65-24.2-98.9-31.6c-32.9-7.2-67-9.3-100.5-7.4c-30,1.8-60.5,6.6-88.7,17.3c-2.9,1.1-5.8,2.3-8.6,3.5 c-1,0.4-0.1,1.9,0.9,1.5c27.7-12,58.1-17.6,88.1-20c33.5-2.7,67.7-1.3,100.8,5.2c34.2,6.7,66.8,19.3,99.6,30.8 c32.9,11.5,66.6,21.7,101.5,24.4c15.8,1.2,31.8,0.9,47.5-1.3c14.2-2,28.6-5.5,41.5-12.1c2.8-1.4,5.5-3,8.1-4.8 C491.2,121.5,490.3,120,489.4,120.6" fill="inherit"/></g></g><g><g id="change1_10"><path d="M489.5,128.1c-11.9,7.1-25.7,10.9-39.3,13.2c-16.1,2.8-32.5,3.6-48.8,2.9c-34.8-1.4-68.8-10.1-101.9-20.2 c-32.8-10.1-65.2-21.8-98.9-28.5c-32.8-6.5-66.6-8.6-100-7.3c-30,1.2-60.3,4.9-89,13.9c-3.1,1-6.1,2-9.1,3.1 c-1,0.4-0.6,2.1,0.5,1.7c28-10.1,58-14.5,87.6-16.4c33.6-2.1,67.8-0.7,101,5.1c34.1,5.9,66.7,17.3,99.6,27.6 c33.1,10.4,66.8,19.6,101.5,22.2c16,1.2,32.3,1,48.2-1c14-1.7,28.2-4.8,41.1-10.6c2.8-1.3,5.6-2.7,8.3-4.3 C491.3,129,490.4,127.5,489.5,128.1" fill="inherit"/></g></g><g><g id="change1_19"><path d="M489.5,135.6c-12.2,6.3-26,9.5-39.5,11.5c-16,2.4-32.4,3-48.6,2.3c-34.6-1.4-68.6-9.1-101.9-18.1 c-33-9-65.6-19.4-99.3-25.4c-33-5.8-66.8-7.7-100.3-6.9c-29.6,0.7-59.5,3.5-88.3,10.6c-3.1,0.8-6.2,1.6-9.2,2.5 c-1.1,0.3-0.6,2,0.5,1.7c28.3-8.2,57.9-11.4,87.3-12.7c33.6-1.4,67.6,0,100.9,5.1c34.2,5.2,67.2,15.5,100.5,24.7 c33.1,9.2,66.6,17.3,101,19.8c16.1,1.1,32.4,1,48.5-0.7c14-1.5,28.2-4,41.4-9.2c2.7-1.1,5.4-2.3,8-3.6 C491.4,136.6,490.5,135.1,489.5,135.6" fill="inherit"/></g></g><g><g id="change1_39"><path d="M489.6,143.1c-12.8,5.6-26.9,8.2-40.8,9.8c-16.1,1.9-32.4,2.3-48.7,1.6c-34.3-1.5-68.2-8.2-101.5-16.2 c-33-7.9-65.8-17-99.4-22.1c-32.9-5-66.4-6.8-99.7-6.5c-29.5,0.2-59.3,2-88.3,7.4c-3,0.5-6,1.1-8.9,1.8c-1.1,0.2-0.6,1.9,0.5,1.7 c28.3-6.1,57.6-8.3,86.5-9c33.5-0.8,67.2,0.7,100.5,5c34.2,4.5,67.4,13.4,100.9,21.6c33.1,8.1,66.5,15.2,100.5,17.6 c16.5,1.2,33,1.1,49.5-0.3c14.1-1.2,28.5-3.3,42-7.8c2.7-0.9,5.3-1.9,7.9-3C491.5,144.1,490.6,142.6,489.6,143.1" fill="inherit"/></g></g><g><g id="change1_41"><path d="M489.8,150.5c-12.9,4.5-26.6,6.6-40.1,7.9c-16.1,1.6-32.3,1.9-48.4,1.3c-34.5-1.3-68.5-7.1-102.3-14 c-32.9-6.7-65.7-14.5-99-18.9c-33.4-4.5-67.2-6.2-100.8-6.4c-29.5-0.2-59.1,0.6-88.4,4.2c-2.8,0.3-5.7,0.7-8.5,1.1 c-1.1,0.2-0.6,1.8,0.5,1.7c28.5-4.1,57.4-5.2,86.1-5.3c33.5-0.1,67,1.4,100.3,5.1c34.1,3.8,67.5,11.5,101,18.5 c33.3,6.9,66.8,13.1,100.8,15.3c16.3,1,32.6,1.1,48.9,0.1c14.1-0.9,28.4-2.6,42.1-6.2c2.8-0.8,5.6-1.6,8.4-2.6 C491.4,151.8,490.9,150.1,489.8,150.5" fill="inherit"/></g></g><g><g id="change1_21"><path d="M489.9,158c-13.1,3.6-26.8,5.1-40.4,6.1c-16.2,1.2-32.5,1.3-48.7,0.7c-34.3-1.3-68.4-6.1-102.3-11.9 c-32.9-5.6-65.6-12-98.7-15.7c-33.4-3.7-67.1-5.4-100.7-6.2c-29.3-0.7-58.6-0.7-87.9,0.9c-3,0.2-6,0.4-8.9,0.6 c-1.1,0.1-1.1,1.8,0,1.7c28.3-2,56.8-2.2,85.1-1.7c33.2,0.6,66.5,2.2,99.5,5.2c34.3,3.1,68.1,9.6,102.1,15.4 c33.4,5.8,66.9,10.9,100.8,12.9c16.4,1,32.8,1.1,49.2,0.4c14.3-0.6,28.7-1.9,42.8-4.7c2.9-0.6,5.7-1.3,8.5-2 C491.4,159.4,491,157.7,489.9,158" fill="inherit"/></g></g><g><g id="change1_4"><path d="M490,165.5c-13.4,2.6-27.1,3.6-40.7,4.3c-16.3,0.8-32.7,0.8-49,0.2c-34.1-1.2-68-5.1-101.8-9.6c-33-4.4-66-9.6-99.2-12.6 c-33.2-3-66.7-4.6-100-6c-29.3-1.2-58.7-2.1-88-2.4c-3,0-6,0-8.9-0.1c-1.1,0-1.1,1.7,0,1.7c28.3,0.1,56.5,0.9,84.8,1.9 c33.3,1.3,66.6,3,99.8,5.5c33.9,2.5,67.6,7.6,101.3,12.3c33.7,4.6,67.5,8.8,101.5,10.6c30.6,1.6,61.8,1.8,92.2-2.6 c2.9-0.4,5.7-0.9,8.6-1.4C491.5,166.9,491.1,165.3,490,165.5" fill="inherit"/></g></g><g><g id="change1_33"><path d="M490.3,172.9c-29.7,3.4-59.9,3.1-89.7,2.1c-33.9-1.1-67.7-4-101.5-7.4c-33.4-3.3-66.8-7.3-100.4-9.6 c-33.3-2.3-66.6-3.9-99.9-5.8c-29.2-1.7-58.4-3.5-87.6-5.6c-3-0.2-5.9-0.4-8.9-0.7c-1.1-0.1-1.1,1.6,0,1.7 c28.1,2.2,56.3,3.9,84.4,5.6c32.9,2,65.8,3.8,98.8,5.7c33.9,2,67.7,5.8,101.5,9.2c33.6,3.4,67.3,6.5,101,8.1 c31.1,1.4,62.6,1.8,93.6-0.8c2.9-0.2,5.8-0.5,8.7-0.9C491.3,174.5,491.4,172.8,490.3,172.9" fill="inherit"/></g></g><g><g id="change1_49"><path d="M490.3,180.4c-29.8,1.1-59.7,0.7-89.5-0.2c-34.1-1-68.2-3-102.3-5.2c-33.5-2.2-66.9-4.8-100.5-6.4 c-33.3-1.6-66.6-3.2-99.8-5.7c-29.1-2.2-58.2-4.8-87.1-8.8c-2.9-0.4-5.9-0.8-8.8-1.3c-1.1-0.2-1.6,1.5-0.5,1.7 c27.5,4.2,55.3,6.8,83,9.1c32.8,2.7,65.7,4.7,98.6,6.1c34.2,1.5,68.3,4,102.4,6.3c33.9,2.2,67.8,4.3,101.8,5.6 c31.3,1.2,62.6,1.6,93.9,0.9c2.9-0.1,5.8-0.2,8.8-0.3C491.4,182.1,491.4,180.4,490.3,180.4" fill="inherit"/></g></g><g><g id="change1_46"><path d="M490.4,187.9c-29.9-1.3-59.9-1.8-89.8-2.5c-34.1-0.9-68.1-1.9-102.2-2.9c-33.7-1-67.3-2.3-101-3.3 c-33.1-1-66.2-2.5-99.2-5.6c-29.2-2.7-58.4-6.2-87.2-12c-2.9-0.6-5.9-1.2-8.8-1.9c-1.1-0.2-1.6,1.4-0.5,1.7 c27.3,6.2,55.2,9.8,83.1,12.7c32.7,3.4,65.6,5.5,98.5,6.5c34.1,1,68.2,2.3,102.4,3.3c33.9,1,67.8,2,101.7,2.9 c31.4,0.9,62.8,1.4,94.2,2.5c2.9,0.1,5.8,0.2,8.8,0.3C491.5,189.7,491.5,188,490.4,187.9" fill="inherit"/></g></g><g><g id="change1_17"><path d="M490.4,195.4c-29.8-3.7-60.1-4.2-90.1-4.9c-34-0.8-68.1-0.8-102.1-0.6c-33.8,0.2-67.7,0.2-101.5-0.2 c-33.1-0.3-66.2-1.9-99.1-5.6c-29.2-3.2-58.4-7.6-86.8-15.2c-2.9-0.8-5.8-1.6-8.7-2.5c-1.1-0.3-1.5,1.4-0.5,1.7 c26.8,8,54.6,12.6,82.3,16.1c32.7,4.2,65.8,6.5,98.8,7c34.1,0.6,68.2,0.6,102.3,0.4c34.2-0.2,68.4-0.3,102.6,0.3 c31.3,0.6,62.8,1.2,94,4.2c2.9,0.3,5.9,0.6,8.8,1C491.5,197.3,491.5,195.6,490.4,195.4" fill="inherit"/></g></g><g><g id="change1_30"><path d="M490.7,202.9c-13.3-2.7-26.9-4-40.5-5c-16.4-1.2-32.8-1.9-49.2-2.2c-34.3-0.7-68.6,0.3-102.9,1.7 c-34.2,1.4-68.3,2.7-102.5,3c-33.1,0.3-66.1-1.4-98.9-5.7c-29-3.7-58.2-9.1-86-18.4c-2.9-1-5.7-2-8.6-3c-1-0.4-1.5,1.3-0.5,1.7 c26.4,9.9,54.4,15.6,82.2,19.7c32.1,4.8,64.7,7.3,97.2,7.5c34.4,0.2,68.8-1,103.1-2.5c34.1-1.4,68.2-2.7,102.4-2.5 c31.6,0.2,63.7,0.9,95.1,5.8c2.9,0.5,5.9,1,8.8,1.6C491.3,204.8,491.8,203.2,490.7,202.9" fill="inherit"/></g></g><g><g id="change1_53"><path d="M490.8,210.4c-13.2-3.7-26.9-5.5-40.5-6.9c-16.5-1.7-33-2.4-49.6-2.7c-34.5-0.6-68.9,1.4-103.3,4.1 c-34.2,2.6-68.3,5.3-102.6,6.1c-33.1,0.8-66.2-1-99-5.8C67.1,201,38.2,194.7,11,183.9c-3-1.2-5.9-2.4-8.9-3.7 c-1-0.5-1.9,1-0.9,1.5C27,193.2,54.8,200,82.6,204.8c32,5.6,64.5,8.3,97,8.2c34.4-0.1,68.7-2.6,103-5.2 c34.3-2.7,68.7-5.2,103.1-5.3c16.9-0.1,33.7,0.4,50.6,1.6c15.2,1.1,30.4,2.6,45.3,5.9c2.9,0.6,5.9,1.4,8.8,2.2 C491.4,212.4,491.9,210.7,490.8,210.4" fill="inherit"/></g></g><g><g id="change1_40"><path d="M490.8,217.9c-13-4.7-26.8-7-40.5-8.7c-16.4-2.1-33-3-49.5-3.2c-34.6-0.4-69.2,2.6-103.5,6.4 c-34.5,3.8-68.9,7.9-103.6,9.3c-32.9,1.4-65.9-0.6-98.4-6c-29-4.8-58.2-12.2-85-24.7c-2.8-1.3-5.6-2.7-8.3-4.1 c-1-0.5-1.9,1-0.9,1.5c25.1,13.1,52.9,21.1,80.6,26.6c31.8,6.3,64.4,9.3,96.9,8.9c34.7-0.4,69.3-4.1,103.7-8 c34.4-3.9,68.9-7.6,103.5-8.1c17-0.2,34,0.2,51,1.7c15,1.3,30.2,3.3,44.8,7.4c2.9,0.8,5.8,1.7,8.7,2.7 C491.4,220,491.9,218.3,490.8,217.9" fill="inherit"/></g></g><g><g id="change1_28"><path d="M491.1,225.5c-12.8-5.6-26.7-8.6-40.4-10.7c-16.1-2.4-32.5-3.5-48.8-3.7c-34.9-0.4-69.6,3.7-104,8.8 c-35,5.1-69.9,10.6-105.2,12.6c-32.8,1.8-65.9-0.3-98.2-6.3c-28.9-5.4-57.9-13.8-83.9-27.6c-2.9-1.5-5.7-3.1-8.5-4.8 c-1-0.6-1.8,0.9-0.9,1.5c24.5,14.6,52.2,23.8,79.9,29.9c31.4,7,63.8,10.2,96,9.6c34.8-0.6,69.4-5.5,103.7-10.6 c34.8-5.2,69.7-10.3,105-11.2c16.7-0.4,33.5,0,50.1,1.7c15.2,1.5,30.5,3.9,45,8.7c3.2,1,6.3,2.2,9.4,3.6 C491.2,227.5,492.1,226,491.1,225.5" fill="inherit"/></g></g><g><g id="change1_25"><path d="M491.2,233c-12.6-6.5-26.6-10.1-40.4-12.5c-16.1-2.8-32.4-4-48.7-4.1c-35.2-0.3-70.2,5-104.8,11.2 c-35.1,6.4-70.1,13.2-105.8,15.7c-32.6,2.3-65.5,0-97.5-6.6c-29.1-6-58-15.5-83.7-30.8c-2.8-1.7-5.6-3.5-8.3-5.3 C1,200,0.1,201.5,1,202.1c23.9,16.1,51.4,26.4,79.2,33.3c31.1,7.7,63.4,11.2,95.5,10.4c35-0.9,69.7-6.9,104-13.2 c35-6.5,70.1-12.9,105.7-14.2c16.9-0.6,33.8-0.2,50.6,1.8c15.2,1.8,30.6,4.7,44.9,10.2c3.2,1.2,6.3,2.6,9.3,4.2 C491.3,235,492.2,233.5,491.2,233" fill="inherit"/></g></g><g><g id="change1_50"><path d="M491.2,240.5c-12.4-7.3-26.4-11.6-40.5-14.4c-16-3.2-32.4-4.5-48.7-4.6c-35.5-0.1-70.5,6.2-105,13.7 c-35.3,7.7-70.6,16-106.7,18.9c-32.5,2.7-65.5,0.2-97.3-7.1c-29.2-6.7-58-17.3-83-33.9c-2.8-1.8-5.5-3.8-8.2-5.8 c-0.9-0.7-1.8,0.8-0.9,1.5c23.4,17.5,51,29.1,79,36.7c30.8,8.4,63.1,12.2,95,11.2c35.3-1.1,70.1-8.4,104.5-15.9 c35.2-7.8,70.5-15.5,106.6-17.3c16.8-0.8,33.7-0.3,50.4,1.9c15.3,2,30.8,5.5,45,11.9c3,1.4,5.9,2.9,8.8,4.6 C491.3,242.6,492.2,241.1,491.2,240.5" fill="inherit"/></g></g><g><g id="change1_45"><path d="M491.3,248c-12.2-8.1-26.3-13.1-40.5-16.2c-15.9-3.6-32.3-5.1-48.6-5.1c-36,0-71.4,7.6-106.2,16.4 c-35.2,8.9-70.4,18.6-106.7,22c-32.2,3-65,0.3-96.4-7.4c-29.2-7.2-57.8-18.9-82.3-36.6c-3-2.1-5.9-4.4-8.7-6.7 c-0.9-0.7-2.1,0.5-1.2,1.2c22.7,18.7,49.9,31.5,77.9,40c30.5,9.2,62.7,13.4,94.5,12.3c35.7-1.2,70.6-9.5,105.1-18.4 c35.3-9,70.8-18.3,107.3-20.5c17.1-1.1,34.3-0.6,51.2,1.9c15.4,2.3,30.8,6.2,44.7,13.3c3.1,1.6,6.1,3.4,9,5.3 C491.3,250.1,492.2,248.6,491.3,248" fill="inherit"/></g></g><g><g id="change1_11"><path d="M491.3,255.5c-12-8.9-26.1-14.5-40.5-18.1c-15.7-3.9-32-5.6-48.2-5.5c-36.3,0.1-71.8,8.9-106.4,18.9 c-35.5,10.3-71,21.4-107.9,25.2c-32.1,3.3-64.9,0.5-96-7.9c-29.6-7.9-58.4-20.9-82.4-40.1c-2.8-2.2-5.5-4.5-8.1-6.9 c-0.8-0.7-2.1,0.5-1.2,1.2c22.1,19.9,49.1,34,77.3,43.2c30.3,9.9,62.6,14.5,94.5,13.2c35.9-1.4,70.9-10.9,105.2-20.9 c35.4-10.3,71.1-21,108.1-23.7c17.1-1.2,34.3-0.8,51.2,2c15.5,2.6,31,7,44.7,14.9c3.1,1.8,6,3.7,8.9,5.8 C491.4,257.7,492.2,256.2,491.3,255.5" fill="inherit"/></g></g><g><g id="change1_2"><path d="M491.6,263.1c-24.1-19.8-57.3-26.1-87.8-26.1c-36.9,0-72.9,10.2-107.7,21.5c-35.6,11.5-71.2,24.2-108.5,28.4 c-32,3.6-64.8,0.6-95.7-8.4c-29.9-8.6-58.6-22.8-82.2-43.3c-2.7-2.3-5.3-4.8-7.9-7.3c-0.8-0.8-2,0.4-1.2,1.2 c21.6,21.1,48.5,36.4,76.9,46.5c29.9,10.6,62,15.5,93.8,14.2c36.3-1.5,71.4-12.1,105.7-23.3c35.7-11.7,71.6-23.9,109.2-27.1 c32-2.7,67.5,0.9,95.2,18.3c3.2,2,6.2,4.2,9.1,6.6C491.2,265.1,492.4,263.8,491.6,263.1" fill="inherit"/></g></g><g><g id="change1_5"><path d="M491.6,270.6c-23.5-21.2-56.9-28.6-87.8-28.5c-37.4,0.1-73.6,11.7-108.4,24.3c-35.5,12.8-71,26.8-108.7,31.4 c-32.1,3.9-64.9,0.6-95.7-9c-30-9.3-58.3-24.7-81.4-46.1c-2.7-2.6-5.4-5.2-8-7.9c-0.8-0.8-2,0.4-1.2,1.2 c21.2,22.3,47.8,38.9,76.4,49.8c29.7,11.3,61.7,16.6,93.4,15.2c36.6-1.6,71.5-13.2,105.7-25.6c35.9-13,72.1-26.9,110.4-30.6 c32.1-3.1,67.6,1.2,94.8,19.8c3.3,2.2,6.3,4.7,9.3,7.3C491.2,272.6,492.5,271.4,491.6,270.6" fill="inherit"/></g></g><g><g id="change1_6"><path d="M491.7,278.1c-22.8-22.3-55.9-30.9-87.1-30.8c-38,0.1-74.4,13.1-109.3,26.9c-35.4,14-70.9,29.5-109.1,34.5 c-32.1,4.3-65,0.7-95.7-9.5c-30.2-10-58.4-26.6-80.9-49.1c-2.8-2.8-5.5-5.6-8.1-8.6c-0.7-0.8-2,0.4-1.2,1.2 c20.7,23.4,47.1,41.2,76,53c29.5,12,61.7,17.7,93.5,16.2c37-1.9,72-14.6,106.1-28.2c36-14.3,72.3-29.8,111.2-33.8 c32.2-3.4,67.5,1.7,94.1,21.3c3.3,2.4,6.4,5.1,9.3,8C491.3,280.1,492.5,278.9,491.7,278.1" fill="inherit"/></g></g><g><g id="change1_58"><path d="M491.7,285.6c-22.1-23.4-54.9-33.2-86.5-33.1c-38.2,0.1-74.6,14.3-109.1,29.2c-35.7,15.4-71.5,32.6-110.4,38.1 c-32.1,4.5-65.2,0.7-95.7-10.1C59.6,298.9,31.5,281,9.3,257.4c-2.7-2.9-5.3-5.9-7.9-8.9c-0.7-0.9-1.9,0.4-1.2,1.2 c20.4,24.6,46.8,43.8,76,56.4c29.1,12.5,61,18.6,92.7,17c37.4-1.9,72.4-15.7,106.3-30.5c36.2-15.7,72.9-32.9,112.5-37.4 c32.5-3.7,68.1,2.3,94,23.5c3.1,2.5,6,5.2,8.7,8.1C491.3,287.6,492.5,286.4,491.7,285.6" fill="inherit"/></g></g><g><g id="change1_14"><path d="M1.8,258.3c21,23.6,47.8,41.6,77.1,53.5c31.7,12.9,66.5,18.6,100.6,15.7c37.2-3.2,72.2-17.4,106.3-31.6 c34.4-14.3,69.4-29,106.8-32.8c31.2-3.1,65.1,2.3,90.5,21.6c3.1,2.4,6.1,5,8.9,7.7c0.8,0.8,2-0.4,1.2-1.2 c-22-21.7-53.7-30.6-84-30.6c-36.3-0.1-71.3,12.3-104.6,25.7c-34.3,13.9-68.3,29.7-104.8,36.7c-35.4,6.7-72.1,3.7-106.3-7.6 c-30.7-10.1-59.6-27-82.6-49.9c-2.7-2.7-5.4-5.5-7.9-8.4C2.2,256.2,1,257.4,1.8,258.3" fill="inherit"/></g></g><g><g id="change1_43"><path d="M3.3,266.9c21.6,22.6,48.8,39.3,77.9,50.4c31.9,12.2,66.7,17.8,100.8,15.1c36.7-3,71.3-16.1,105.3-29.5 c34.3-13.5,69-27.6,105.9-31.7c31-3.4,65,1,91,19.3c3.2,2.2,6.2,4.7,9.1,7.3c0.8,0.8,2.1-0.5,1.2-1.2 c-22.6-20.7-54.3-28.5-84.3-28.1c-36,0.4-70.8,12.3-104,25.2c-34,13.1-67.8,27.9-103.9,34.4c-35.3,6.3-71.9,3.3-106-7.3 c-30.7-9.5-59.9-25.2-83.6-47c-2.8-2.6-5.5-5.2-8.1-8C3.8,264.9,2.5,266.1,3.3,266.9" fill="inherit"/></g></g><g><g id="change1_27"><path d="M4.9,275.5c22.2,21.4,49.8,37,78.7,47.4c32,11.5,66.6,16.9,100.5,14.5c36.3-2.6,70.8-14.8,104.7-27.4 c34.3-12.8,68.9-26.3,105.5-30.6c30.9-3.6,64.8-0.1,91.4,17.2c3.2,2,6.2,4.3,9,6.7c0.8,0.7,2.1-0.5,1.2-1.2 c-23.2-19.7-54.9-26.3-84.7-25.6c-35.6,0.8-70,12.3-103.1,24.4c-34.2,12.6-68.2,26.5-104.3,32.4c-35.1,5.7-71.2,2.6-105.3-7.4 c-30.6-9-60.2-23.5-84.5-44.4c-2.8-2.4-5.4-4.8-8-7.3C5.3,273.5,4.1,274.7,4.9,275.5" fill="inherit"/></g></g><g><g id="change1_51"><path d="M6.4,284.1c22.8,20.1,50.5,34.4,79.2,44.1c32.2,10.9,66.7,16.3,100.6,14.2c35.8-2.2,70.1-13.4,103.6-25.1 c34.3-12,68.8-25.1,105.1-29.6c30.8-3.8,64.7-1.3,91.9,14.9c3.2,1.9,6.3,4,9.3,6.3c0.9,0.7,2.1-0.5,1.2-1.2 c-23.8-18.6-55.5-24.2-85.1-23.1c-35.4,1.3-69.7,12.4-102.9,24c-33.9,11.8-67.7,24.7-103.4,30c-35.1,5.3-71,2-105.1-7.4 c-30.5-8.4-60.1-21.9-85.1-41.4c-2.8-2.2-5.6-4.5-8.2-6.9C6.8,282.2,5.6,283.4,6.4,284.1" fill="inherit"/></g></g><g><g id="change1_32"><path d="M8,292.8c23.5,18.9,51.4,32,80,41c32.8,10.3,67.7,15.6,102,13.6c35.4-2.1,69.6-12.5,103.1-23.6 c34-11.3,68.2-23.5,103.9-28c30.5-3.9,64.3-2,91.7,13.1c3.1,1.7,6.1,3.6,9,5.7c0.9,0.7,1.8-0.9,0.9-1.5 c-24.4-17.5-56.5-21.9-85.8-20.4c-34.8,1.8-68.5,12.4-101.4,23.3c-33.6,11.1-67.2,22.9-102.4,27.8c-35.3,4.9-71.4,1.6-105.8-7.3 c-30.3-7.9-60-20.2-85.6-38.4c-2.9-2.1-5.8-4.2-8.5-6.4C8.3,290.8,7.1,292.1,8,292.8" fill="inherit"/></g></g><g><g id="change1_54"><path d="M9.7,301.5C34,319,62.2,331,90.8,339.4c32.8,9.6,67.5,14.8,101.8,13c34.9-1.8,68.8-11.2,102-21.5 c33.8-10.5,67.6-22.1,102.8-26.9c30.7-4.2,64.6-3.2,92.8,10.9c3.1,1.5,6,3.2,8.9,5.1c0.9,0.6,1.8-0.9,0.9-1.5 c-25-16.2-57-19.7-86.2-17.9c-34.8,2.2-68.5,12.6-101.6,23c-33.6,10.5-67.5,21.4-102.6,25.6c-35,4.1-70.6,0.6-104.8-7.9 c-30.1-7.5-59.8-18.8-86-35.7c-2.8-1.8-5.6-3.7-8.3-5.7C9.7,299.4,8.8,300.9,9.7,301.5" fill="inherit"/></g></g><g><g id="change1_16"><path d="M11.3,310.1c24.9,15.9,53.1,26.7,81.5,34.5c32.9,9,67.4,14.2,101.5,12.8c34.5-1.3,68.1-9.7,101.1-19.2 c33.6-9.7,67.1-20.7,101.9-25.8c31-4.5,65.1-4.5,94.2,8.4c3.1,1.4,6.2,3,9.2,4.7c1,0.6,1.8-0.9,0.9-1.5 c-25.9-15.1-58.2-17.6-87.5-15.2c-34.5,2.7-68,12.8-101,22.5c-33.4,9.8-67,19.7-101.7,23.2c-34.9,3.6-70.2-0.1-104.3-8.1 c-29.9-7-59.6-17.3-86.4-32.7c-2.8-1.6-5.6-3.3-8.4-5.1C11.2,308,10.3,309.5,11.3,310.1" fill="inherit"/></g></g><g><g id="change1_59"><path d="M12.8,318.8c25.6,14.4,53.9,24.1,82.3,31.3c32.8,8.3,66.9,13.4,100.8,12.5c34.3-0.9,68-8.4,101-17.2 c33.6-9,67-19.5,101.4-24.7c30.8-4.7,64.4-5.3,93.9,6c3.4,1.3,6.7,2.8,9.9,4.4c1,0.5,1.9-1,0.9-1.5 c-26.6-13.8-58.8-15.3-88.1-12.7c-34.2,3.1-67.3,12.8-100.3,21.9c-33.4,9.2-67.1,18.1-101.7,21.1c-34.8,3-69.8-0.8-103.8-8.3 c-29.9-6.6-59.6-15.9-86.9-29.8c-2.9-1.5-5.7-3-8.5-4.6C12.7,316.7,11.8,318.2,12.8,318.8" fill="inherit"/></g></g><g><g id="change1_15"><path d="M14.4,327.4C40.6,340,68.7,348.7,97,355.3c33,7.8,67,12.8,101,12.3c34-0.5,67.5-7.1,100.4-15.2 c33.4-8.2,66.5-18.2,100.6-23.5c31-4.9,64.6-6.2,94.8,3.8c3.3,1.1,6.5,2.4,9.7,3.8c1,0.5,1.9-1,0.9-1.5 c-27.3-12.4-59.4-13-88.6-10c-34,3.5-67,12.8-99.9,21.3c-33.2,8.6-66.8,16.5-101.2,18.9c-34.7,2.4-69.5-1.5-103.4-8.5 c-29.9-6.2-59.6-14.7-87.6-27c-2.8-1.2-5.6-2.5-8.3-3.8C14.2,325.4,13.3,326.9,14.4,327.4" fill="inherit"/></g></g><g><g id="change1_31"><path d="M16.1,336.1c26.8,10.7,54.9,18.5,83.1,24.6c32.9,7.1,66.6,12.2,100.4,12.1c33.7-0.1,67.1-5.7,99.9-13.1 c33.7-7.5,66.9-17.1,101-22.6c31.1-5,64.6-6.9,95.2,1.9c3.2,0.9,6.3,2,9.4,3.2c1,0.4,1.5-1.3,0.5-1.7 c-13.2-5.1-27.3-7.5-41.4-8.5c-16.2-1.2-32.5-0.5-48.6,1.3c-33.9,3.9-66.9,13-100.1,20.9c-33.1,7.9-66.7,14.8-100.8,16.4 c-34.6,1.7-69.2-2.5-103-9.2c-29.4-5.8-58.6-13.4-86.8-23.8c-2.8-1-5.6-2.1-8.4-3.2C15.5,334,15.1,335.7,16.1,336.1" fill="inherit"/></g></g><g><g id="change1_26"><path d="M17.7,344.7c27.1,8.6,54.9,15.5,82.8,21c32.8,6.5,66.3,11.6,99.8,12.1c33.7,0.5,67.3-4.3,100.3-11 c33.5-6.8,66.5-15.7,100.2-21.4c31.4-5.2,64.9-7.9,96.2-0.5c3.2,0.8,6.4,1.7,9.6,2.7c1.1,0.3,1.5-1.3,0.5-1.7 c-13.6-4.4-27.9-6.2-42.2-6.8c-16.3-0.7-32.7,0.3-48.9,2.4c-33.7,4.3-66.6,13.1-99.7,20.3c-33.3,7.3-67,13.2-101.2,14.2 c-34.2,1-68.4-3.4-102-9.6c-29.1-5.4-58.1-12.2-86.5-20.8c-2.8-0.8-5.6-1.7-8.4-2.6C17.1,342.7,16.6,344.4,17.7,344.7" fill="inherit"/></g></g><g><g id="change1_42"><path d="M19.2,353.4c27.4,6.5,54.8,12.5,82.5,17.6c32.7,6,65.9,11,99.2,12c33.6,1,67.2-2.8,100.3-8.8c33.4-6,66.3-14.5,99.7-20.2 c31.7-5.4,65.2-8.7,97.2-2.9c3.3,0.6,6.6,1.3,9.8,2.2c1.1,0.3,1.5-1.4,0.5-1.7c-13.9-3.6-28.3-4.9-42.6-5.1 c-16.4-0.2-32.7,1-48.9,3.3c-33.7,4.6-66.7,13.1-100,19.7c-33.4,6.6-67.1,11.6-101.2,11.9c-34,0.4-67.9-4.2-101.4-10 c-28.9-4.9-57.6-11-86.2-17.7c-2.8-0.7-5.6-1.3-8.4-2C18.6,351.4,18.1,353.1,19.2,353.4" fill="inherit"/></g></g><g><g id="change1_18"><path d="M20.8,362c27.5,4.3,54.8,9.6,82.2,14.1c32.6,5.4,65.6,10.5,98.7,11.9c33.5,1.5,67-1.4,100.1-6.6 c33.6-5.3,66.7-13.3,100.2-19.2c31.7-5.5,64.8-9.3,96.9-5.2c3.5,0.4,7,1,10.5,1.7c1.1,0.2,1.6-1.5,0.5-1.7 c-30-6-61.7-3.6-91.7,0.8c-33.8,4.9-66.9,13.1-100.5,19.1c-33.4,6-67.2,9.9-101.2,9.7c-33.8-0.3-67.5-5-100.9-10.3 c-28.7-4.5-57.2-9.9-85.8-14.7c-2.8-0.5-5.6-0.9-8.4-1.4C20.1,360.1,19.7,361.8,20.8,362" fill="inherit"/></g></g><g><g id="change1_7"><path d="M22.5,370.6c27.6,2.1,55.1,6.7,82.5,10.7c32.7,4.8,65.6,9.9,98.6,11.7c33.3,1.8,66.6-0.2,99.6-4.7 c33.5-4.6,66.5-12.1,99.8-17.9c31.8-5.6,64.6-9.8,97-7.3c3.5,0.3,7.1,0.6,10.6,1.1c1.1,0.2,1.6-1.5,0.5-1.7 c-30.5-4.2-62.2-1.2-92.5,3.5c-33.7,5.2-66.9,13-100.5,18.3c-33.5,5.3-67.3,8.3-101.2,7.4c-33.8-0.9-67.3-5.8-100.7-10.6 c-28.4-4.1-56.8-8.8-85.3-11.6c-2.8-0.3-5.6-0.5-8.4-0.7C21.4,368.8,21.4,370.5,22.5,370.6" fill="inherit"/></g></g><g><g id="change1_12"><path d="M24.1,379.3c27.2-0.1,54.5,3.7,81.5,7.2c32.9,4.2,65.7,9.3,98.8,11.6c33.7,2.3,67.6,1.2,101.1-2.7 c33.6-3.9,66.7-11,100-16.9c31.8-5.6,64.3-10.2,96.7-9.2c3.4,0.1,6.7,0.3,10.1,0.5c1.1,0.1,1.1-1.6,0-1.7 c-30.8-2.4-62.2,1.3-92.5,6.2c-33.9,5.5-67.4,13-101.4,17.7c-33.7,4.6-67.7,6.6-101.7,5.1c-33.2-1.5-66.2-6.5-99.1-10.8 c-28.2-3.7-56.6-7.8-85.1-8.6c-2.8-0.1-5.6-0.1-8.3-0.1C23,377.5,23,379.3,24.1,379.3" fill="inherit"/></g></g><g><g id="change1_20"><path d="M25.7,387.9c27.1-2.3,54.7,0.8,81.6,3.8c32.8,3.6,65.4,8.7,98.3,11.4c33.6,2.8,67.5,2.5,101.1-0.7 c33.7-3.2,66.8-9.8,100.1-15.7c32-5.7,64.4-10.7,96.9-11.4c3.4-0.1,6.8-0.1,10.2,0c1.1,0,1.1-1.7,0-1.7 c-31.2-0.5-62.6,3.7-93.3,8.9c-33.9,5.7-67.5,12.9-101.7,16.9c-33.5,3.9-67.3,4.9-101,2.8c-33.1-2-66-7.1-99-11 c-28-3.3-56.5-6.7-84.8-5.6c-2.8,0.1-5.6,0.3-8.3,0.5C24.5,386.2,24.5,388,25.7,387.9" fill="inherit"/></g></g><g><g id="change1_29"><path d="M27.4,396.5c12.4-2.1,25-2.4,37.5-2.2c14.8,0.2,29.7,1.3,44.5,2.7c32.7,3,65.1,8.1,97.8,11.2 c33.7,3.2,67.6,3.8,101.4,1.3c33.6-2.5,66.7-8.6,99.7-14.6c32-5.8,64.2-11.2,96.7-13.4c3.4-0.2,6.8-0.4,10.2-0.6 c1.1,0,1.1-1.8,0-1.7c-31.2,1.3-62.4,6.1-93.1,11.5c-33.8,6-67.5,12.8-101.7,16.1c-33.9,3.3-68,3.3-102,0.7 c-33.1-2.6-65.8-7.8-98.8-11.2c-27.9-2.9-56.7-5.6-84.7-2.5c-2.6,0.3-5.3,0.7-7.9,1.1C25.9,395,26.3,396.6,27.4,396.5" fill="inherit"/></g></g><g><g id="change1_48"><path d="M29,405.1c12.1-3,24.6-4,37-4.3c14.7-0.4,29.3,0.3,44,1.3c32.7,2.4,65.1,7.4,97.6,10.9c33.7,3.7,67.7,5.2,101.6,3.5 c33.6-1.8,66.7-7.3,99.8-13.3c32.3-5.9,64.6-11.8,97.3-15.7c3.4-0.4,6.9-0.8,10.4-1.1c1.1-0.1,1.1-1.8,0-1.7 c-31.5,3.2-62.8,8.6-93.9,14.3c-33.7,6.2-67.5,12.6-101.7,15.1c-34,2.5-68.1,1.6-102-1.5c-33.1-3.1-65.9-8.4-99-11.3 c-27.5-2.4-56-4.3-83.3,0.5c-2.8,0.5-5.5,1.1-8.2,1.7C27.4,403.7,27.9,405.4,29,405.1" fill="inherit"/></g></g><g><g id="change1_36"><path d="M30.5,413.7c11.8-3.9,24.2-5.6,36.6-6.4c14.6-1,29.3-0.7,43.9,0c32.8,1.7,65.2,6.8,97.7,10.7c33.8,4.1,67.9,6.6,102,5.5 c33.8-1.1,67.1-6.2,100.3-12.3c32.3-5.9,64.4-12.3,96.8-17.7c3.5-0.6,6.9-1.2,10.4-1.7c1.1-0.2,0.6-1.8-0.5-1.7 c-31.6,5.1-63,11.1-94.4,17c-33.8,6.4-67.7,12.4-102.1,14.2c-34,1.8-68.1-0.1-102-3.8c-32.8-3.6-65.3-9-98.2-11.3 c-27.3-1.9-56-3-82.8,3.5c-2.7,0.7-5.5,1.4-8.1,2.3C29,412.4,29.5,414.1,30.5,413.7" fill="inherit"/></g></g><g><g id="change1_1"><path d="M32.1,422.3c11.6-4.7,24-7.1,36.4-8.5c14.5-1.6,29.1-1.8,43.6-1.3c32.5,1.1,64.6,6,96.8,10.3c33.8,4.5,67.9,8,102.1,7.7 c34.1-0.2,67.8-4.9,101.3-11.1c32.5-6,64.8-12.9,97-19.9c3.5-0.8,6.9-1.5,10.4-2.3c1.1-0.2,0.6-1.9-0.5-1.7 c-31.6,7-63.4,13.6-95.2,19.8c-33.7,6.6-67.8,12.1-102.2,13.2c-34.3,1.1-68.5-1.8-102.4-6.1c-32.6-4.1-65.1-9.5-97.9-11.3 c-27-1.4-55.7-1.6-81.8,6.5c-2.7,0.8-5.4,1.8-8,2.9C30.6,421.1,31.1,422.8,32.1,422.3" fill="inherit"/></g></g><g><g id="change1_57"><path d="M33.8,430.9c24.1-11.9,52.8-13.4,79.2-13c32.4,0.4,64.3,5.2,96.3,9.9c34,5,68.2,9.3,102.6,9.8 c34.1,0.5,67.9-3.6,101.4-9.8c32.7-6.1,65.2-13.5,97.3-22c3.5-0.9,7-1.9,10.4-2.8c1.1-0.3,0.6-2-0.5-1.7 c-31.5,8.8-63.4,16.1-95.4,22.5c-34,6.8-68.4,11.9-103.1,12.2c-34.9,0.3-69.6-3.7-104.1-8.6c-32.1-4.6-64-9.8-96.4-10.9 c-26.9-0.9-55.7-0.1-81.1,9.8c-2.5,1-5,2.1-7.5,3.3C32,429.9,32.9,431.4,33.8,430.9" fill="inherit"/></g></g><g><g id="change1_34"><path d="M35.4,439.5c23.5-13.4,52.2-16.1,78.7-16.4c32.3-0.3,64.2,4.4,96,9.4c34.1,5.4,68.4,10.7,103,11.9 c34.3,1.3,68.4-2.3,102-8.7c32.7-6.1,65.2-14.1,97-24.1c3.5-1.1,6.9-2.2,10.4-3.4c1.1-0.4,0.6-2-0.5-1.7 c-31.1,10.4-63.1,18.5-95.2,25.1c-33.9,7-68.4,11.7-103.2,11.2c-35.2-0.4-70.2-5.4-105-10.9c-31.9-5-63.8-10.2-96.2-10.7 C95.6,421,67,422.8,42.3,434c-2.6,1.2-5.2,2.5-7.7,4C33.6,438.5,34.4,440,35.4,439.5" fill="inherit"/></g></g><g><g id="change1_22"><path d="M37,448.1c22.7-14.8,51.2-18.8,77.8-19.6c32-1,63.6,3.5,95.1,8.8c34.5,5.8,68.9,12.1,103.9,14.2 c34.4,2.1,68.7-1,102.6-7.3c33-6.2,65.8-14.8,97.3-26.3c3.5-1.3,6.9-2.6,10.3-3.9c1-0.4,0.6-2.1-0.5-1.7 c-30.7,12.1-62.8,20.9-95.1,27.7c-34.2,7.2-69.1,11.5-104.1,10.3c-35.6-1.2-70.8-7.3-105.9-13.3c-31.6-5.4-63.3-10.4-95.5-10.3 c-26.6,0.1-54.9,3-78.9,15.4c-2.7,1.4-5.3,2.9-7.9,4.6C35.1,447.2,36,448.7,37,448.1" fill="inherit"/></g></g><g><g id="change1_56"><path d="M38.5,456.7c22.2-16.3,50.7-21.6,77.6-22.9c31.7-1.6,63.1,2.7,94.3,8.2c34.7,6.2,69.3,13.4,104.5,16.3 c34.8,2.8,69.6,0.3,103.9-6.3c33-6.3,65.7-15.6,96.7-28.5c3.3-1.4,6.7-2.8,10-4.3c1-0.5,0.1-2-0.9-1.5 c-30.4,13.7-62.6,23.3-95.1,30.3c-34.5,7.4-69.8,11.2-105.1,9.1c-35.7-2.1-70.9-9.2-106.1-15.6c-31.1-5.7-62.4-10.6-94.2-9.9 c-26.8,0.6-55.3,4.5-78.8,18.4c-2.7,1.6-5.2,3.3-7.7,5.1C36.7,455.9,37.6,457.4,38.5,456.7" fill="inherit"/></g></g><g><g id="change1_3"><path d="M40.2,465.2c21.5-17.6,50.2-24.1,77.3-26.1c31.5-2.2,62.7,1.9,93.6,7.7c34.8,6.5,69.3,14.7,104.5,18.4 c35,3.7,70.2,1.7,104.7-5c33-6.4,65.5-16.3,96-30.4c3.5-1.6,7-3.3,10.5-5.1c1-0.5,0.1-2-0.9-1.5c-29.9,15.1-62.2,25.7-94.9,33 c-35.1,7.8-71.1,11-106.9,8c-35.8-3-70.9-11.1-106-17.9c-31.1-6-62.5-10.8-94.3-9.3c-26.8,1.2-55,6.4-77.7,21.6 c-2.5,1.7-4.9,3.4-7.2,5.3C38.1,464.7,39.4,465.9,40.2,465.2" fill="inherit"/></g></g><g><g id="change1_38"><path d="M41.8,473.8c20.8-18.7,49.1-26.6,76.4-29.3c31.3-3,62.5,0.9,93.2,6.9c35.1,6.9,69.8,16.1,105.4,20.6 c35.3,4.5,70.9,3.1,105.9-3.8c33-6.5,65.4-17.1,95.4-32.4c3.5-1.8,6.9-3.6,10.3-5.5c1-0.5,0.1-2-0.9-1.5 c-29.5,16.6-61.8,28.1-94.7,35.6c-35.1,7.9-71.2,10.7-107,7c-36.3-3.7-71.7-13-107.4-20.3c-30.9-6.3-62.1-10.9-93.7-8.8 c-27,1.8-55.1,8.2-77.2,24.6c-2.4,1.8-4.7,3.7-7,5.7C39.7,473.4,41,474.6,41.8,473.8" fill="inherit"/></g></g><g><g id="change1_35"><path d="M43.3,482.5c20.2-19.8,48-29.1,75.6-32.4c30.9-3.7,62-0.2,92.3,6c35.8,7.3,70.9,17.6,107.1,22.9c35.3,5.2,71,4.4,106-2.6 c33.1-6.6,65.5-18,95-34.4c3.5-2,7-4,10.5-6.2c0.9-0.6,0.1-2.1-0.9-1.5c-28.9,17.8-61,30.4-94.1,38.1 c-35.5,8.3-72.1,10.5-108.3,6c-36.7-4.6-72.2-14.9-108.3-22.6c-30.4-6.5-61.4-10.8-92.6-8.1c-27,2.4-54.6,9.8-76,27 c-2.6,2.1-5.1,4.3-7.5,6.6C41.3,482,42.5,483.3,43.3,482.5" fill="inherit"/></g></g><g><g id="change1_9"><path d="M44.9,491.1c19.4-20.7,46.6-31.3,74.2-35.4c30.7-4.6,61.7-1.4,91.9,5c36,7.6,71.2,18.9,107.6,25.1 c35.8,6.2,72.1,6,107.7-1.2c33.2-6.7,65.5-18.9,94.4-36.5c3.5-2.1,6.9-4.3,10.4-6.6c0.9-0.6,0.1-2.1-0.9-1.5 c-28.4,19-60.3,32.6-93.4,40.6c-36.3,8.7-73.9,10.4-110.8,4.7c-36.4-5.6-71.7-16.7-107.6-24.7c-30.3-6.8-61.2-10.9-92.2-7.4 c-27.1,3-54.4,11.7-75.2,29.8c-2.5,2.2-5,4.6-7.3,7C42.9,490.7,44.1,491.9,44.9,491.1" fill="inherit"/></g></g><g><g id="change1_55"><path d="M46.4,499.7c19.7-22.5,47.9-34.6,77-39.1c32-5,64.2-1,95.6,6.3c36.5,8.5,72,20.8,109,27.1c33.6,5.7,67.9,5.3,101.3-1.6 c33-6.9,64.7-19.9,92.9-38.3c3.5-2.3,7-4.7,10.4-7.2c0.9-0.6,0-2.2-0.9-1.5c-27.7,20.1-59.3,34.7-92.5,43 c-33.7,8.4-68.8,10.2-103.1,5.2c-37.3-5.4-73.1-17.7-109.6-26.6c-31.4-7.7-63.5-12.7-95.8-9c-28.4,3.2-56.7,13-77.9,32.7 c-2.7,2.5-5.2,5.1-7.6,7.8C44.5,499.3,45.7,500.6,46.4,499.7" fill="inherit"/></g></g></g></svg>