<svg xmlns="http://www.w3.org/2000/svg" xmlns:xlink="http://www.w3.org/1999/xlink" height="1059.6" preserveAspectRatio="xMidYMid meet" version="1.0" viewBox="21.1 720.4 2457.2 1059.6" width="2457.2" zoomAndPan="magnify"><g id="change1_1"><path d="M2476.7,1208.4l-60.5-43.9c-0.1-0.1-0.3-0.1-0.4-0.2l-60.7-31c-0.5-0.3-1.1-0.4-1.6-0.3l-59.5-14 c-0.6-0.3-1.4-0.4-2.1-0.3l-58.5-0.8c-0.7-0.4-1.6-0.4-2.4-0.1l-58.4-3.1c-0.3-0.1-0.7-0.1-1-0.1l-56.7-13.7 c-0.7-0.6-1.6-0.8-2.5-0.6l-55.5-13c-0.4-0.3-0.9-0.5-1.4-0.5l-54.1-26.4c-0.5-0.5-1.1-0.7-1.7-0.8l-53.4-24.1 c-0.6-0.9-1.7-1.3-2.7-1.2l-52.3-22.6c-0.6-0.7-1.4-1-2.3-1l-52.3-22.6c-0.5-0.5-1.2-0.8-1.9-0.8l-51.5-23.7c-0.5-0.6-1.2-0.9-2-1 l-50.9-26.6c-0.4-0.4-0.9-0.7-1.4-0.8l-50.7-32.1c-0.2-0.1-0.3-0.2-0.5-0.3l-50.8-41.1l-50.7-48.6l-49.9-41.5 c-0.1-0.1-0.1-0.2-0.2-0.2c-0.2-0.2-0.5-0.4-0.8-0.5l-49.3-29.7c0,0,0,0,0,0c-0.3-0.3-0.7-0.5-1.1-0.6c0,0,0,0,0,0l-49-16.1 c-0.6-0.4-1.4-0.5-2.1-0.4l-47.9-3.6c-0.3,0-0.5-0.1-0.8,0l-0.1,0c-0.1,0-0.1,0-0.2,0l-47,4.8c-0.4-0.1-0.9-0.2-1.3-0.1l-47.8,8.2 c-0.3,0-0.5,0.1-0.8,0.2l-46.1,5.7c-0.7,0.1-1.2,0.4-1.7,0.8l-35.7,34.2c-0.2,0.1-0.4,0.2-0.5,0.4l-36.3,36.3 c-0.1,0.1-0.2,0.2-0.3,0.4l-35.2,32.2c-0.3,0.1-0.5,0.2-0.7,0.3l-36.5,25.7l-36.7,10.1l-37.6,7.4l-38.5,3.7l-38.8,6 c-0.6,0.1-1.1,0.4-1.5,0.8l-37.1,10.6c-0.3,0-0.6,0.1-0.9,0.2l-39.1,15.9l-39.5,8l-40,4.5c-0.6-0.1-1.2,0.1-1.7,0.3l-39.8,11 c-0.1,0-0.1,0-0.2,0l-41.4,6.5c-0.1,0-0.3,0.1-0.4,0.1l-41.7,12.8c-0.2,0.1-0.4,0.2-0.6,0.3l-41.7,24.4c-0.1,0-0.2,0.1-0.3,0.2 l-41.8,33.2l-41.7,36l-42,24.3l-43.6,4.2l-45.2,2.1l-45.4,4.5c0,0-0.1,0-0.1,0c-0.3,0-0.6,0.1-0.8,0.2l-44.8,11.4 c-0.6,0.1-1.2,0.3-1.6,0.7l-44,21.1c-0.7,0.1-1.3,0.5-1.7,1l-44.9,31.4l-45.2,37l-46.2,28.1c-0.1,0.1-0.2,0.1-0.2,0.2l-46.3,20 c-0.3,0-0.6,0.1-0.9,0.2L23.1,1271c-1.4,0.6-2,2.1-1.5,3.5c0,0,0,0.1,0,0.1c0,0.1,0.1,0.2,0.1,0.3c0,0,0,0.1,0.1,0.1 c0,0.1,0.1,0.1,0.1,0.2c0.1,0.1,0.1,0.2,0.2,0.3c0.1,0.1,0.1,0.1,0.2,0.2c0.1,0.1,0.1,0.1,0.2,0.2c0.2,0.2,0.4,0.3,0.6,0.4l45.6,24 c0.4,0.3,0.9,0.6,1.4,0.7l46.1,22.5l47.3,22.1c0.1,0,0.2,0.1,0.2,0.1c0.3,0.1,0.7,0.2,1,0.2l45.7,1c1,0.4,2.2,0.2,3-0.6l0.2-0.2 l43.9-16.6c0.5,0,1.1-0.1,1.6-0.4l46.2-28.5l46.8-21.8l48.8,8.2l52.3,39.3l54.3,56.6l55.2,63.3c0,0,0,0.1,0.1,0.1c0,0,0,0,0.1,0.1 l0,0c0.1,0.3,0.4,0.4,0.6,0.6l54.3,34.3c0.3,0.3,0.8,0.5,1.2,0.6c0.2,0.1,0.4,0.1,0.6,0.1l88.4,8l20.5,7.5l56.7,46.6l58.7,64.2 c0.5,0.5,1.1,0.8,1.8,0.9l57.7,7.7l59.1,20.5c0,0,0,0,0,0l59.9,22.2c0.4,0.3,0.8,0.5,1.3,0.5l3.5,0.5l87.3,20.4 c0.1,0.1,0.3,0.1,0.4,0.1l1.5,0.2l0.7,0.2l65.9,23l62.3,20.1l110.9,37.9c0.3,0.1,0.6,0.2,0.9,0.2l63.7,17.2c0,0,0,0,0.1,0 c0,0,0,0,0.1,0c0.2,0.1,0.4,0.1,0.7,0.1c0.3,0,0.6,0,0.8-0.1l46.2-13.7c0.6,0,1.3-0.2,1.7-0.7c0.2-0.1,0.3-0.3,0.5-0.5l46.6-57.8 c0.5-0.4,1-1,1.2-1.7l46.4-68.8c0.1-0.2,0.2-0.4,0.3-0.7l46.4-74.5c0.2-0.2,0.3-0.4,0.4-0.7l45.9-71c0.1-0.1,0.1-0.1,0.2-0.2 l45.5-56.9l42.7-21.2c0.3,0,0.6-0.1,0.8-0.2l38.1-6.9l41.9,22.3l0.8,0.5l0.3,0.2c0.1,0.1,0.2,0.1,0.4,0.2c0.1,0,0.1,0,0.2,0.1 c0.1,0,0.2,0.1,0.4,0.1c0.1,0,0.2,0,0.2,0.1c0.2,0,0.4,0.1,0.6,0.1c0.3,0,0.5,0,0.7-0.1c0,0,0,0,0,0c0.2-0.1,0.4-0.1,0.6-0.2 c0.5-0.2,0.9-0.5,1.2-0.9c0,0,0,0,0,0l41.3-32c0.4-0.1,0.8-0.3,1.2-0.6l42.4-35.5l41.7-30.5l18.5-10.7l29.1-9.1l75.5-18.3l14.6-2.6 l61.6-7.7l69.5-5.5c0,0,0.1,0,0.1,0l36.2-4.6l36.1-5.2l34.7-6.2c0.3,0,0.6,0,0.8,0l33.9-7.5l0.7,0.2c0.5,0.1,1,0.1,1.5,0l34.9-9.5 c0.7-0.2,1.3-0.6,1.7-1.2l32.7-10.5c0.4-0.1,0.8-0.4,1.1-0.7l32.9-15.5c0.8-0.1,1.5-0.5,2-1.2 C2478.3,1211.2,2478,1209.4,2476.7,1208.4z M2371.6,1245c-0.4-0.2-0.8-0.2-1.2-0.2l-52.7-14.4l26.4-9.9l52.8,17.7L2371.6,1245z M2300.7,1258.6C2300.6,1258.6,2300.6,1258.6,2300.7,1258.6l-49.8-6.9l20.3-6l1.2,0.2c0.4,0.1,0.9,0.1,1.4-0.1l0.1,0l45.8,9.5 L2300.7,1258.6z M2264.7,1263.9c-0.1,0-0.2,0-0.3-0.1l-46.8-3.1l17.9-4.8l0.1,0c0.4,0,0.8,0,1.2-0.1l0.4-0.1l42.8,6L2264.7,1263.9z M1746,1405.8l-56.8-21.7l33.5-11.8h1.1c0.3,0,0.5,0,0.6-0.1l55.1,27.4L1746,1405.8z M1514.3,1701.4l-57.3-15.7l41.9-40.2l57.5-6.6 L1514.3,1701.4z M1467.7,1759.3l-58.1-36.1l42.2-32.7l58.5,16.1L1467.7,1759.3z M1358.3,1757.1c-0.1,0-0.2-0.1-0.3-0.1l-0.8-0.3 l-22.9-10.5l33.2,7.1c0.1,0,0.2,0.1,0.3,0.1l5.2,1.9l23,11.9L1358.3,1757.1z M513.5,1380.9l43.8-42.4l51.8,62.1l-43.8,39.5 L513.5,1380.9z M459.2,1324l43.7-46l50.5,55.9l-43.9,42.5L459.2,1324z M406.3,1283.7l43.7-49.2l48.6,39.4l-43.9,46.2L406.3,1283.7z M357.3,1273.7l42.9-49.8l43.9,8.4l-43.3,48.7L357.3,1273.7z M210.1,1341.2l-36.8-0.8l39.2-28.4c0,0.1,0.1,0.2,0.1,0.3l35.5-6.3 L210.1,1341.2z M124.5,1321.1l41.3-16.7l38.9,6.1l-40.3,29.2L124.5,1321.1z M78,1298.5l40.7-15.5l39.3,18.2l-40.7,16.5L78,1298.5z M30.9,1273.8l41.1-19.7l40.3,25l-41.5,15.8L30.9,1273.8z M166.2,1205.3l39.9,15.2l-40.4,31.6l-40.3-22L166.2,1205.3z M211.9,1168.3 l40,15.9l-40.3,32l-39.8-15.1L211.9,1168.3z M257.1,1136.5l40,17.3l-39.8,26.2l-39.8-15.8L257.1,1136.5z M302.1,1114.6l39.6,18.4 l-38.4,17l-39.5-17.1L302.1,1114.6z M347.2,1102.8l38.6,18.8l-36.7,8.4l-38.4-17.9L347.2,1102.8z M392.4,1098.2l36.9,18.3l-34.4,3.1 l-37-18L392.4,1098.2z M437.3,1096.1l36.1,17.8l-32.9,1.7l-36.2-18L437.3,1096.1z M482.1,1091.9l36.6,11l-33.7,10.3l-36.5-18 L482.1,1091.9z M525.9,1067.3l37.8,2.3l-35.4,29.8L490,1088L525.9,1067.3z M568.2,1031.2l37.7,3.8l-35.8,29.2l-37.4-2.4 L568.2,1031.2z M609.9,998l38.3,8.7l-35.7,23.1l-37.8-3.8L609.9,998z M650.7,973.8l38.6,15.4l-34,13.2l-38.3-8.7L650.7,973.8z M692,960.9l38.2,21.6l-32.6,3.7l-38.4-15.3L692,960.9z M774.6,943.1l40.7,22.9l-33.8,13.5l-40.6-27.1L774.6,943.1z M814.6,938.5 l38.4,16.9l-30.7,7.9l-38-21.4L814.6,938.5z M855,930.5l37.3,18.2l-29.7,4.5l-37.8-16.6L855,930.5z M971.6,897l39.8,18.9l-30.2,9.4 l-39.3-23.7L971.6,897z M1010,893.2l37.4,13.9l-27.8,6.3l-36.9-17.6L1010,893.2z M1047.8,885.9c0,0,0.1,0,0.1,0.1l36.9,11.4 l-26.7,7.4l-36.7-13.6L1047.8,885.9z M1085.6,875.7l37.1,10.1l-27.2,8.7l-36.8-11.3L1085.6,875.7z M1123.6,849.7 C1123.7,849.7,1123.7,849.7,1123.6,849.7l39.8,6.9l-31,25.6l-39.7-10.8L1123.6,849.7z M1197.3,779.6c0,0,0.1,0,0.1-0.1l39.2-1.3 l-31.2,35.3l-39.2-2.8L1197.3,779.6z M1280.6,739.2c0.1,0,0.1-0.1,0.2-0.1l39-6.7l-30.5,36l-39.1,3.4L1280.6,739.2z M1469.1,744.8 l-32.5,38.3l-43.7-12.2l32.5-40.4L1469.1,744.8z M1519.5,774.1l-32.5,34.3l-44.7-22.8l32.6-38.4L1519.5,774.1z M1570,815.4l-32.1,29 l-45.8-32.8l32.3-34L1570,815.4z M1620.8,863.7l-31.6,23.9l-46.6-39.5l31.8-28.7L1620.8,863.7z M1671.6,905.2l-31,21l-46.6-34.8 l31.2-23.7L1671.6,905.2z M1722.8,938.1l-30.5,19.8l-46.3-28.2l30.6-20.8L1722.8,938.1z M1775.2,965.9l-30.2,19.3l-46.7-24.1 l30.2-19.6L1775.2,965.9z M1828.5,990.7l-30.1,19.4l-47.3-21.8l30.2-19.4L1828.5,990.7z M1881.5,1013.8L1853,1026l-47.3-13.5 l29.2-18.9L1881.5,1013.8z M1935.6,1037.2l-27.5,10.2L1861,1029l27.9-12L1935.6,1037.2z M1992.3,1062.7l-28.4,13.7l-48.4-25.4 l28-10.4L1992.3,1062.7z M2048.7,1090l-29,15.8l-49.4-26l28.9-13.9L2048.7,1090z M2103.2,1104.2l-26.1,11l-48.6-7.5l26.9-14.6 L2103.2,1104.2z M2163.3,1118.5l-27,13.5l-49.8-14.3l26.6-11.2L2163.3,1118.5z M2221.7,1123.2l-25.6,14.7l-48.6-4.9l25.2-12.6 L2221.7,1123.2z M2282.3,1124.4l-25.9,15.7l-49.6-1.6l25.7-14.7L2282.3,1124.4z M2346.2,1137.2l-28.5,18.3l-53-13.5l28.5-17.3 L2346.2,1137.2z M2379.1,1187.9l-55-29.3l29.9-19.2l55.1,28.1L2379.1,1187.9z M2343.3,1214.1l-56-21.6l31.5-30.1l54.9,29.2 L2343.3,1214.1z M2307.8,1227.9l-55.2-12.5l29.5-18.7l53.7,20.7L2307.8,1227.9z M2236.7,1249.7c-0.4,0-0.8,0-1.2,0.1l-0.7,0.2 l-48.1-6.1l23.8-9l47.9,8.5l-21.5,6.3L2236.7,1249.7z M1451.5,1682.8l-59-72.5l41.8-34.1l59.1,66.3L1451.5,1682.8z M1404.7,1719.5 l-59.2-64.3l42.5-40.8l58.9,72.5L1404.7,1719.5z M1127.4,1670.5l-0.2-0.1l43.7-54.1l56.2,35.3l-29.4,31.1l-48.5-9.5l-0.2-0.1 c-0.5-0.2-0.9-0.2-1.4-0.2L1127.4,1670.5z M892.6,1605.2l-49.1-45.4l42.3-11.2l52.7,31.8l-37.5,24.8c-1.2,0.8-1.6,2.4-1,3.8l-4,0.2 l-2.8-0.3C893.8,1607.7,893.6,1606.1,892.6,1605.2z M617.4,1401.3l43.5-36.3l52,60.8l-43.5,35.1L617.4,1401.3z M561.6,1334.4 l43.5-38.8l51.9,64.8l-43.5,36.4L561.6,1334.4z M507,1273.8l43.5-42.6l50.8,59.7l-43.6,38.9L507,1273.8z M454.5,1230.7l43.5-27.6 l47.7,24.7l-42.9,42L454.5,1230.7z M349.2,1241.2c-0.3,0.2-0.6,0.4-0.9,0.7l-0.7,0.8l-25,17.3l29.2-32.5l0.6-0.3l25.4-18.5 l-28.4,32.4L349.2,1241.2z M221.7,1304.1l37.9-33.7l34.6-10.7l-37.3,38.2L221.7,1304.1z M125.3,1279.5l40.8-20.9l39.1,9.8 l-40.1,29.5L125.3,1279.5z M303.6,1156.4l38.7,7.4l-38.8,24.6l-38.4-6.7L303.6,1156.4z M348.9,1136.2l37.4,8.5l-36.3,14.6l-37.2-7.1 L348.9,1136.2z M655.8,1008.7l41.1,19.4l-36.1,17.5l-40.9-13.7L655.8,1008.7z M697.1,992.5l40.6,24.7l-33.8,7.9l-40.8-19.3 L697.1,992.5z M1019.1,919.6l40.7,20.4l-30.9,12l-40.5-22.8L1019.1,919.6z M1057.5,910.8l39.5,11.7l-30.1,14.6l-39-19.6 L1057.5,910.8z M1094.9,900.5l36.8,12.3l-26.5,6.1l-36.9-10.9L1094.9,900.5z M1132.9,888.5l38.1,9.7l-28.3,11.9l-38-12.7 L1132.9,888.5z M1244.4,778.3l39.7-3.5l-31.2,39.2l-39.5-0.6L1244.4,778.3z M1483,813.1l-33.1,41.4l-44.5-19.4l33-44.7L1483,813.1z M1533.6,848.8l-32.8,36.4l-45.6-27.8l32.9-41.2L1533.6,848.8z M1584.5,891.6l-32.2,30.9l-46.5-34l32.5-36.1L1584.5,891.6z M1635.6,930.1l-31.7,27.1l-46.6-31.2l31.9-30.6L1635.6,930.1z M1687,961.8l-31.2,24.8l-46.6-26.3l31.4-26.8L1687,961.8z M1739.5,989.3l-31,20.6l-47.1-20l31.2-24.7L1739.5,989.3z M1841.3,1028.7l-23.6,5.1l-42.6-12.8l23.6-4.4L1841.3,1028.7z M1900,1050.4l-27.5,10.2l-46.1-22.7l26.7-5.8L1900,1050.4z M2012.5,1108.5l-28.2,10l-49.3-22.6l28.8-13L2012.5,1108.5z M2066.3,1119.3l-24.5,9.3l-46.2-7.9l24.4-8.7L2066.3,1119.3z M2245.2,1213.4l-53.7-11.9l29.8-20.9l53.2,14.2L2245.2,1213.4z M1890.7,1336.5c-0.2,0-0.5,0.1-0.7,0.2l-3,1.5l-23,10.7l-49.5-30.5l30-2.7l47.9,20.1L1890.7,1336.5z M1481.4,1540.6l-58.1-68.1 l39.2-13.9l57.9,65.6L1481.4,1540.6z M1435.2,1568.7l-58.1-67.4l41-25.8l58,67.9L1435.2,1568.7z M1388.8,1606l-58.3-63.5l42-37.8 l58.1,67.3L1388.8,1606z M1341.5,1651.1l-58.2-57l43-47.4l58,63.3L1341.5,1651.1z M1067.5,1640.3l43.5-45.8l54.4,19.3l-43.5,53.9 L1067.5,1640.3z M1008.5,1608.7l42.3-27.4l53.3,11.4l-42.4,44.6L1008.5,1608.7z M891,1544.9l42.3-28.5l52.9,36.7l-42.3,23.8 L891,1544.9z M779,1483.1l42.3-30.2l50.5,30.4l-42.2,32.1L779,1483.1z M721.7,1426.5l42.5-29l52.2,51.6l-42.5,30.3L721.7,1426.5z M665.7,1361.4l42.6-28.9l52,60.7l-42.6,29L665.7,1361.4z M609.8,1291.9l42.7-30.5l52,66.4l-42.7,28.9L609.8,1291.9z M555.4,1227.9 l42.7-20.4l50.3,49.5l-42.5,30.3L555.4,1227.9z M454.1,1177l40.4-15.5l43.8,19.2l-40.5,15.7L454.1,1177z M302.8,1250.7l-33,10.3 l36.5-33.9l32.7-12.3L302.8,1250.7z M396.7,1146.8l0.8-0.1l26.3-0.7l-28.2,10l-26.4,1.9L396.7,1146.8z M661.6,1051.9l35.1,9.5 l-31.3,6.9c-0.3,0-0.6,0.1-0.9,0.2l-33.8,5L661.6,1051.9z M949.2,974.2l41.8,23.9l-32.4,12.1l-41.7-27L949.2,974.2z M988.8,965.8 l40.7,19.8l-31,9.8L958,972.3L988.8,965.8z M1255.6,820l41,1l-32.6,42.4l-41-4.8L1255.6,820z M1446.1,859.4l-33.7,43.8l-44.3-17.3 l33.6-45.9L1446.1,859.4z M1496.8,889.8l-33.5,39.7l-45.4-23.8l33.5-43.6L1496.8,889.8z M1547.9,926.9l-33.1,34.4l-46.2-28.8 l33.3-39.4L1547.9,926.9z M1599.1,961.4l-32.7,30.3l-46.5-27.2l32.8-34.1L1599.1,961.4z M1650.3,990.6l-31.6,21.2l-46.4-17.6 l31.9-29.6L1650.3,990.6z M1740.1,1020.1l-13,1.6l-30.3-4.9l11.8-1L1740.1,1020.1z M1806.9,1036.6l-25,6.6l-43.1-17l23.9-3 L1806.9,1036.6z M1865.5,1063.7l-29.4,13.1l-47.5-29.3l28.7-7.6L1865.5,1063.7z M1920.3,1094.8l-28.1,6.9l-48.9-21.4l29.1-13.1 L1920.3,1094.8z M1976.2,1121.2l-27.7,8.8l-48.2-24.3l27.4-6.7L1976.2,1121.2z M2030.5,1132.6l-24.5,8.5l-45.9-8.6l24.5-7.8 L2030.5,1132.6z M2092.7,1151.6l-27.8,11.7l-50-19.1l27.3-9.5L2092.7,1151.6z M2151.7,1170.5l-28.1,13.3l-50.5-17.6l28-11.8 L2151.7,1170.5z M2111.7,1231.6l-52.1-13.5l27.6-11.9l52,13.7L2111.7,1231.6z M1999.1,1296.3l-22.1,1.6l23.6-11.6l0.4-0.2l26.3,0.6 l-27.3,9.7C1999.7,1296.3,1999.4,1296.3,1999.1,1296.3z M1930,1317.2l-8.2,1.4c-0.9,0-1.7,0.5-2.2,1.2l-0.7,0 c0.1-0.1,0.2-0.2,0.2-0.3c0.9-1.4,0.6-3.2-0.8-4.1l-30.1-20.1l10.3,4c0.3,0.1,0.5,0.2,0.8,0.2l50.3,4.8l-18.2,9.2 C1930.1,1314.2,1929.5,1315.8,1930,1317.2z M1745.2,1267.9l-54.2-27.1l34.4-20.4l53,37.8L1745.2,1267.9z M1702.8,1298.9l-54.4-15.3 l37-38.9l53.8,26.9L1702.8,1298.9z M1566.4,1425.4c0.3,0.3,0.6,0.4,0.9,0.6l-16.4,9.3l-5.9,1.6c0.3-0.2,0.5-0.5,0.7-0.8 c0.6-1.6-0.1-3.3-1.6-3.9l-21.2-8.8l10.3,2.3c0.5,0.2,1.2,0.1,1.7-0.1l47.2-18.6l-15.5,14.2 C1565.4,1422.3,1565.3,1424.2,1566.4,1425.4z M1372.8,1497l-56.4-40.7l41-24.6l56.4,39.5L1372.8,1497z M1326.1,1538.5l-56.9-40.5 l42-38.1l56.9,40.9L1326.1,1538.5z M1278.7,1590.3l-56.6-38.4l43.1-49.5l56.6,40.4L1278.7,1590.3z M1162.9,1532.9l42.4-45.5l54,12.8 l-42.5,48.8L1162.9,1532.9z M1108.7,1587.7l-52.6-11.3l42.4-43.9l52.7,4.3L1108.7,1587.7z M997.6,1552.7l42.1-32.7l51.8,11.2 l-41.9,43.5L997.6,1552.7z M939.2,1513.3l41.3-18.6c0.3,0.1,0.6,0.1,0.9,0.1c0.3,0,0.6,0,0.8-0.1l51.7,22.2l-42.1,32.7L939.2,1513.3 z M883.7,1483.3l41.1-22.2l50.1,30.3l-41,18.4L883.7,1483.3z M769.6,1394.5l42-20.7l51.9,48.6l-42,23.4L769.6,1394.5z M713.6,1329.7 l42.1-19.2l51.7,58.9l-42,20.7L713.6,1329.7z M657.7,1258.5l42.2-19.4l51.8,66.6l-42.1,19.2L657.7,1258.5z M604,1205.1l42-16.5 l49.4,45.9l-41.9,19.3L604,1205.1z M553.7,1181l39-15.2l0.1,0c0.7,0.3,1.5,0.3,2.2,0l0,0l44.2,19.2l-40.3,15.9L553.7,1181z M395,1166.9l-16.5,6.3l19-11.6l0.4-0.2l13.2-4.6L395,1166.9z M531.5,1105.9l1.3-0.5l5.2-1.9l43,18.4l-39,14.9l-42.9-18.6l31.8-12.2 l0.3-0.1C531.3,1106,531.4,1106,531.5,1105.9z M635.8,1107.4l44.3,18.7l-38.5,15l-44.3-19L635.8,1107.4z M709.1,1064.7l31.5,4.9 l-26.9,5.6l-31.5-4.6L709.1,1064.7z M876.6,1052.3l38,14l-29.8,5.8l-37.8-15.7L876.6,1052.3z M917.8,1033.9l41.2,22.9l-32.3,7.4 c-0.3,0-0.6,0-0.8,0l-41.2-15.1L917.8,1033.9z M997.6,1002l42.7,27.6l-33.2,13.8l-42.8-29L997.6,1002z M1037.1,989.4l42.2,25 l-32.2,12.3l-42.2-27.2L1037.1,989.4z M1076.7,977l41.5,10.5l-32.4,24l-41.2-24.4L1076.7,977z M1266.7,869.6l41.9,6.7l-32.8,39.1 l-41.9-9.5L1266.7,869.6z M1459.4,934l-33.4,37.1l-45.1-20.8l33.4-40L1459.4,934z M1510.5,965.7l-33.1,32.7l-45.9-24.5l33.2-36.9 L1510.5,965.7z M1561.5,995.7l-32.3,24.1l-46-18.8l32.5-32.1L1561.5,995.7z M1607.3,1013.8l-24.1,3.3l-1,0l-42.6,2.4l27.8-20.8 L1607.3,1013.8z M1773.3,1046.2l-28.2,9.8c-0.1,0-0.2,0-0.2,0l-45.6-23.3l27.3-5L1773.3,1046.2z M1883,1103.8l-26.6,6.1l-47.9-14.9 l27.8-11.7L1883,1103.8z M1940.6,1132.4l-27.9,8.3l-48.4-26.5l27.6-6.4L1940.6,1132.4z M1994.8,1144.8l-24.5,8.1l-45.8-9.6l24.1-7.2 L1994.8,1144.8z M2057.1,1166.5l-28.3,11.3l-50.2-21.5l27.9-9.1L2057.1,1166.5z M2050.9,1215.7l-51-20.2l28.5-11.2l51.1,19.2 L2050.9,1215.7z M1999.7,1280.2l-52.9-8.9l29.9-16.2c0.1,0,0.1,0,0.2-0.1l52.3,11.6l-29.4,13.6L1999.7,1280.2z M1726.4,1214 l-50.7-20l30.1-9.7l48.7,27.5L1726.4,1214z M1684.2,1238l-52.4-11.8l35.2-29.2l51.9,20.4L1684.2,1238z M1578.4,1396.2l-2.7,1 l-4.7,1.4c-1.6,0.5-2.5,2.1-2,3.7c0.4,1.3,1.5,2.1,2.8,2.1c0.1,0,0.2,0,0.4,0l-38.9,15.3l-42-9.4c-0.1-0.1-0.2-0.1-0.3-0.1l-9.9-1.1 l17.8-11.1l47.5,0.1l-7.7,4.2c-1.5,0.8-2,2.6-1.2,4c0.6,1,1.6,1.5,2.6,1.5c0.4,0,0.9-0.1,1.5-0.3l17.3-9.5l29.5-5.8L1578.4,1396.2z M1357.9,1425.2c-0.1,0-0.2-0.1-0.4-0.1l-42.4-5.2l27.1-6.4l1.2,0l42.5,3.6L1357.9,1425.2z M1310.5,1453l-50.6-8.9l37.8-20l1.2-0.3 l50,6.1L1310.5,1453z M1263.6,1495.1l-52.8-12.6l40.7-33.8l52.9,9.3L1263.6,1495.1z M1156,1531.1l-51.6-4.2l40.9-37.1l51.7-2.6 L1156,1531.1z M874.8,1423.7l39.9-14.8l49.7,32.2l-39.7,13.3L874.8,1423.7z M817.6,1371.8l40.7-11.4l51.2,44.2l-40.7,15.1 L817.6,1371.8z M761.7,1308.9l41-8.8l51,55.5l-40.9,11.5L761.7,1308.9z M705.8,1237.4l41.2-7.6l51.4,65l-41.1,8.8L705.8,1237.4z M549.7,1140.2l39.3-15.1c0.2,0,0.3,0,0.5,0l44.4,19l-39.4,15.3c-0.3-0.1-0.5-0.1-0.8-0.1L549.7,1140.2z M642.1,1147.6l44.2,18.9 l-39.4,15.5l-44.1-19.2L642.1,1147.6z M688,1129.8l44.3,28.1l-38.2,5.8l-44.3-19L688,1129.8z M713.6,1081.7l44,26.8l-9.7,5.3l-6-2.5 l-11.6-5.9c-0.4-0.2-0.7-0.3-1.1-0.3l-33.6-14.1L713.6,1081.7z M756.7,1072.4l42.3,24.5l-35.1,8.5l-42.3-25.8L756.7,1072.4z M1046.4,1033.3l41.6,22.4l-31.7,8.6l-42-17.8L1046.4,1033.3z M1086,1018.2l42.5,18.4l-32.2,16.6l-42.4-22.8L1086,1018.2z M1125.3,989.5l43.3,18L1135,1033l-43.2-18.7L1125.3,989.5z M1163.8,957.7l43.4,19.5l-33.1,26l-43.4-18.1L1163.8,957.7z M1239.2,927.5l40.1,15.4l-28.3,7.6l-39.9-17.3L1239.2,927.5z M1315.6,932.8l-26.6,7.5l-38.2-14.6l25.9-4L1315.6,932.8z M1369.1,951.9l-30.4,16.6l-42.4-24.2l29.8-8.4L1369.1,951.9z M1472.4,1002.5l-32.4,24.2l-45.5-22.7l32.5-25.8L1472.4,1002.5z M1520.4,1022.5l-25.7,6.7l-3,0.3c-0.2,0-0.4,0-0.6,0.1l-0.6,0.2l-41.9-2.3l29.7-22.2L1520.4,1022.5z M1798.5,1098.6l46,14.4 l-24.8,6.5L1775,1102L1798.5,1098.6C1798.5,1098.6,1798.5,1098.6,1798.5,1098.6z M1904.1,1143.2l-27.9,8.3l-48.9-27.9l27.7-7.2 L1904.1,1143.2z M2020.6,1181l-28.1,11.1l-50.6-23.7l27.7-9.2L2020.6,1181z M1917.4,1225.6l-52-26.2l30.8-14.1l52.1,25.8 L1917.4,1225.6z M1820.1,1219.6l-35.8-17.9c-0.4-0.2-0.9-0.3-1.4-0.3l-9.5-4.4l26.5-9.8c0.2,0.1,0.4,0.1,0.6,0.2l50.2,13.3 L1820.1,1219.6z M1667,1190.7c-0.3-0.1-0.6-0.2-0.8-0.2l-46.3-1.6l25.8-11.4l2-0.3l2.7,0l43,5.1L1667,1190.7z M1203.1,1480.9 l-49.7,2.5l36.8-25.3l0.4,0c0.2,0,0.3,0,0.4,0l49.1-8L1203.1,1480.9z M1086.1,1479c-0.4,0-0.8,0.1-1.3,0.2l-48.1-12.5l37.7-15.5 l48.8,7.7l-37.1,20L1086.1,1479z M979.9,1442.7l38.1-11.5l47.8,17.2l-38.2,15.7L979.9,1442.7z M922.4,1406.9l38.5-7.6l49.4,27.8 l-38.6,11.6L922.4,1406.9z M975.4,1090.1l42,18.4l-33,11.4l-41.9-20.3L975.4,1090.1z M1016.3,1080.2l41,16.8l-31.3,8.7l-40.9-18 L1016.3,1080.2z M1056.6,1070.7l40.5,12.8l-30.6,10.8l-40.2-16.6L1056.6,1070.7z M1096.3,1059.9l39.4,12.1l-29.1,8.2 c-0.1,0-0.2,0-0.3,0l-39.3-12.4L1096.3,1059.9z M1135.8,1039.8l41.7,18.9l-31,10.1l-41.9-12.9L1135.8,1039.8z M1175,1010.4l43.8,24 l-33.5,21.4l-43.9-20L1175,1010.4z M1213.4,980.4l44.3,27.7l-33.1,22.6l-44.3-24.3L1213.4,980.4z M1251.1,957.3l44.2,28l-32.3,19.2 l-44.3-27.7L1251.1,957.3z M1288.6,946.8l43.2,24.6l-30.5,10.7l-43-27.2L1288.6,946.8z M1433.5,1030.1l-30.9,14.3l-44.6-23.7 l30.8-12.9L1433.5,1030.1z M1582.5,1023.1l21.7-0.2l-4.5,0.9c-0.2-0.1-0.6-0.1-0.8-0.1l-20.7,0l3.1-0.6L1582.5,1023.1z M1701.6,1076.6l-31.9,18.5l-48.8-34l31.7-15.2L1701.6,1076.6z M1810.7,1122.5l-29.1,10.2l-47.3-23.8l28.4-5.2L1810.7,1122.5z M1868.3,1154.1l-30.2,10.3l-49.7-27.8l30.4-10.6L1868.3,1154.1z M1923.3,1168.7l-27.5,10.2l-47.6-11.9l27.3-9.3L1923.3,1168.7z M1800.4,1180.6l-50.2-26.2l31.1-15.2l50,28L1800.4,1180.6z M1261.2,1425.9l-7.7,1.1l-30.1-2.4l30.2-10.8l39,4.6L1261.2,1425.9z M1189.5,1452c-0.1,0-0.2,0.1-0.2,0.1l-35.5,1.3l24.7-8.2l5.3-0.9l31.8-3.7L1189.5,1452z M1132,1454.3l-42.6-6.7l30.8-7.5l43.7,3.8 l-31.1,10.3L1132,1454.3z M1030.1,1429.2l33.8-5.5l44.6,13.1l-34.1,8.3L1030.1,1429.2z M971.3,1398.5l35.4-2.6l47.3,23.3l-35.7,5.8 L971.3,1398.5z M1025.1,1112l43.8,21.1l-33.7,13.7l-43.8-23.1L1025.1,1112z M1066.3,1100.5l42.8,10l-33,19.4l-42.3-20.4 L1066.3,1100.5z M1146.3,1075.1l35.8,5.9l-24.7,6l-36.5-4.9L1146.3,1075.1z M1185.6,1062.3l37,12.1l-25.3,3.1l-0.2-0.1l-38.1-6.4 L1185.6,1062.3z M1224.6,1037.7l43,24.5l-31.7,10.3l-43.6-14.2L1224.6,1037.7z M1263.1,1011.6l44.5,29.4l-32.7,18.4l-44.6-25.4 L1263.1,1011.6z M1300.8,988.9l44.8,31.1l-32.2,17.8l-44.9-29.7L1300.8,988.9z M1395.9,1047.4l-30.9,13.8l-44.9-20.3l31.1-17.2 L1395.9,1047.4z M1545.2,1030.1l36.9-0.1l-21.4,8l-36.9-1.1l20.6-6.7L1545.2,1030.1z M1661.1,1096.1l-28.1,2.6l-48.5-13.6l30.8-21 L1661.1,1096.1z M1712.1,1108.3l-24,7l-40.1-12l21.4-2L1712.1,1108.3z M1626.6,1174.7c-0.5-0.2-1-0.3-1.6-0.2l-1.5,0.2l-42.9-3.7 l30.4-18l33.6,18.6L1626.6,1174.7z M1339,1385.2l-48.7-18.3l35.8-20.8l48.8,17.6L1339,1385.2z M1240.8,1379.1l-47.9-16.4l34.4-14.3 l47.7,18.9L1240.8,1379.1z M1177.6,1439.2l-30.5-2.7l18.1-2.4l32.6,2l-15,2.5L1177.6,1439.2z M1079.7,1422.2l29.3-2.8l40.8,10.7 l-29.6,3.9L1079.7,1422.2z M1019.1,1395.5l32.7-1.2l45.5,20.2l-33.2,3.1L1019.1,1395.5z M1034.5,1153.2l45.6,25.2l-34.8,16.8 l-45.4-26.9L1034.5,1153.2z M1076,1136.4l44.9,16.7l-34.6,22l-44.8-24.8L1076,1136.4z M1117.1,1112.3l44.5,11.2l-34.4,25.4 l-44.3-16.4L1117.1,1112.3z M1156.9,1093.1l42.9,10.2l-31.7,15.9l-42.9-10.8L1156.9,1093.1z M1235.1,1078.4l36.3,10.8l-21.8,1.4 l-1.1-0.2l-36.4-9.3L1235.1,1078.4z M1313.4,1044.5l44.2,19.9l-31.6,13.9l-44.4-15.9L1313.4,1044.5z M1551.4,1043.4l-28.9,17.6 l-43-3.6l28.6-15.3L1551.4,1043.4z M1571.4,1169.6l-50-37.9l33-13.5l0.3,0.1l50.3,31.5L1571.4,1169.6z M1325.1,1339.5l-49-18.7 l36.3-22.9l49.1,12.2L1325.1,1339.5z M1227.5,1342l-47.8-20.6l35.6-17.7l47.8,18.3L1227.5,1342z M1184.9,1359.9l-47.4-17.5 l35.3-17.5l47.3,20.4L1184.9,1359.9z M1165.8,1428l-39.6-10.4l27.5-3c0,0,0,0,0,0l39.7,10.6l-27.3,2.8L1165.8,1428z M1109.6,1413.2 l-44.8-19.9l31.8-2.3l45,18.8l-31.9,3.5L1109.6,1413.2z M1045.5,1201.6l44.1,18.2l-35,16.9l-44.1-25.3L1045.5,1201.6z M1086.8,1181.8l44,17.4l-34.2,17.2l-44-18.1L1086.8,1181.8z M1128.2,1155.5l44.4,10.1l-35.1,29.9l-44.4-17.6L1128.2,1155.5z M1209,1105.4l0.3-0.1l41.2,6.3l-31.2,16.5l-41.3-7.2L1209,1105.4z M1248.2,1096.8l1.1-0.1l33.6,5.4l-23.2,4.8l-34.2-5.2 L1248.2,1096.8z M1326.6,1084.5c0.2-0.1,0.3-0.1,0.5-0.2l0.3-0.1l37.9,1.2l-26.9,12.8h0l-36.9-7.3L1326.6,1084.5z M1514.6,1066.3 l-30.8,20.5l-44.5-6.8l30.6-17.5L1514.6,1066.3z M1554.6,1111.7c-0.1,0.1-0.2,0.1-0.3,0.1l-34.2-9.7l18.8,0c0.1,0,0.2,0,0.3,0 l37.3,4.9L1554.6,1111.7z M1515.4,1127.7l-45.1-19.5l27-5.4l3.2,0l44.8,12.6L1515.4,1127.7z M1475.8,1153.3l-48.2-26.2l33.1-16.5 l48.6,21L1475.8,1153.3z M1435.3,1188.3l-49.3-29.2l35.5-28.7l49.4,26.9L1435.3,1188.3z M1311.6,1291.6l-48-13.2l35.4-28.1 l47.8,19.1L1311.6,1291.6z M1214.7,1297.3l-45.5-16.9l35.1-18.1l45.4,17.8L1214.7,1297.3z M1172.5,1318.3l-45.3-20l35.1-14.4 l45.3,16.9L1172.5,1318.3z M1130,1339.5l-46-23l35.8-15.1l45.9,20.3L1130,1339.5z M1098.1,1385.1l-46.2-26l34-3.8l46.3,23.8 L1098.1,1385.1z M967.8,1244.5l0.2,0.1l42.5,32.4l-30.7-6.1l-40.5-38.2l28.1,11.7C967.6,1244.4,967.7,1244.5,967.8,1244.5z M1054.8,1243.1l44.7,16.5l-34.2,13.6l-44.7-19L1054.8,1243.1z M1097.2,1222.9l45.1,15.2l-35.1,18.3l-45.2-16.6L1097.2,1222.9z M1138.6,1202.1l45,12.3l-34,19.9l-45-15.1L1138.6,1202.1z M1431.4,1084.8l36.6,5.6l-22.9,5.1c-0.4,0.1-0.8,0.2-1.1,0.5l-36.4,1.5 L1431.4,1084.8z M1461,1104.1c-0.2,0.1-0.4,0.2-0.6,0.3l-16.6-2.2l2.5-0.1l22.9,0.3L1461,1104.1z M1380.3,1156.2l-46.2-14.7 l34.4-24.2l46.2,11.1L1380.3,1156.2z M1339.1,1198.4l-47.1-16.7l36.1-35.8l47.2,15L1339.1,1198.4z M1297.7,1243.6l-47.2-17.2 l36.9-40l47.3,16.8L1297.7,1243.6z M1033.6,1314.7l-43.3-35.2l31.1,6.2c0.2,0,0.5,0,0.7,0l44.5,28L1033.6,1314.7z M1076.5,1312.7 l-45.1-28.3l34.1-4.6c0.1,0,0.2-0.1,0.3-0.1l45.6,18.2L1076.5,1312.7z M1119.1,1294.8l-45.3-18.2l34.5-13.8l45.3,17.7L1119.1,1294.8 z M1161.1,1277.4l-46.1-18l35.3-18.5l46.1,18.3L1161.1,1277.4z M1203,1255.4l-46.1-18.3l35-20.5l46.3,12.1L1203,1255.4z M1314.1,1114.5l0.5-0.1l44.1,2.1l-32.3,22.7l-44.2-5.5L1314.1,1114.5z M1274.1,1138.6l46.4,5.8l-35.4,35l-46.3-9L1274.1,1138.6z M1233.3,1175.5l46.9,9.1l-36.5,39.5l-46.7-12.3L1233.3,1175.5z M1421.4,1123.7l-42.2-10.1l28.5-9.9l0.7,0l42.3,5.5L1421.4,1123.7z M1367.8,1110.8c-0.1,0-0.3,0-0.4,0l-32.2-1.5l17.9-4.4l34.7-1L1367.8,1110.8z M1299.9,1104.9l27.9-0.4l1.8,0l-15.4,3.8l-0.6,0 l-27-0.6L1299.9,1104.9z M1260.8,1113.1l0.4-0.1l42.1,1l-30.7,18.4l-42-3.4L1260.8,1113.1z M1220.9,1134.3l45,3.6l-34.6,31.2 l-45-6.9L1220.9,1134.3z M1180,1167.3l45.9,7.1l-35.8,35.7l-45.8-12.5L1180,1167.3z M1011.2,1256.8c0.3,0.1,0.6,0.2,0.9,0.1l42.4,18 l-31.2,4.2l-39.7-30.2L1011.2,1256.8z M977.5,1276.9l0.4,0.1l46.3,37.7h-34.6l-45.9-42.6L977.5,1276.9z M1032.1,1320.8l45.6,29.5 l-34.5,3.9l-46.2-33.9L1032.1,1320.8z M1086.9,1349.2l-44.3-28.7l33.7-1.1l44.7,22.3L1086.9,1349.2z M1210.1,1258.2l35.8-27.2 l46.7,17l-35.9,28.4L1210.1,1258.2z M1352.7,1265.6l-49.2-19.7l36.9-40.3l49.2,28.2L1352.7,1265.6z M1394.2,1229.6l-49.6-28.5 l36.6-37.8l49.6,29.3L1394.2,1229.6z M1500.8,1096.1c-0.2,0-0.4,0.1-0.6,0.1l-2.3,0.5l-29.2-0.4l15.4-3.4c0.3,0,0.6,0,0.8,0 l19.3,3.3L1500.8,1096.1z M1394.8,1097.6c-0.1,0-0.1,0.1-0.2,0.1l-39.8,1.1c-0.3-0.2-0.7-0.2-1.1-0.2l-0.5,0c-0.2,0-0.4-0.1-0.6-0.1 l-0.8,0l27.1-12.8l0,0l39.9-0.9L1394.8,1097.6z M1287.3,1094.3c0.2,0,0.3-0.1,0.5-0.1l0.3-0.1l21.9,4.3l-10.3,0.1 c-0.1,0-0.1,0-0.2,0l-22.9-3.7L1287.3,1094.3z M1169.2,1125.4l43.6,7.7l-34.4,27.8l-43.7-10L1169.2,1125.4z M1002.3,1213.2 l45.1,25.9l-34.9,11.4l-45.1-26.8L1002.3,1213.2z M958.8,1225.5l32.1,19l-21-5.9l-28.1-21.4l16.7,8.1L958.8,1225.5z M915.2,1204.3 l33.3,25.4l-22-9.2l-30.7-27.5L915.2,1204.3z M923.4,1226l0.3,0.1l45.9,43.2l-34-4.8l-45.4-48L923.4,1226z M932.9,1270.5 c0.1,0.1,0.2,0.1,0.3,0.1l0.1,0l46.5,43.1l-34.9-4.4l-0.2-0.2l-45.8-47.6L932.9,1270.5z M987,1320.1l46.5,34.2l-34.5-0.2l-46.2-38.3 L987,1320.1z M1041.7,1360.2l45.9,25.8l-33.6,2.5l-45.6-28.5L1041.7,1360.2z M1153.6,1408.3l-46-19.1l33.1-5.8l46.6,14.8 L1153.6,1408.3z M1141.6,1377.3l-46.6-23.8l34.6-7.6l47,17.3L1141.6,1377.3z M1222.3,1300.2l35.1-17.3l47.4,13l-35.3,22.3 L1222.3,1300.2z M1367,1305.6l-47.9-11.9l34.7-21.7l48.3,4.1L1367,1305.6z M1408.5,1270.8l-48.1-4.2l35-30.1l48.1,7L1408.5,1270.8z M1450.2,1238.6l-49.4-7.3l35.4-35.8l49,21.1L1450.2,1238.6z M1491.6,1212.8l-50.5-21.7l35-30.5l49.7,37.5l-34,14.7L1491.6,1212.8z M1531.7,1195.1l-50.6-38.2l34.3-22.3l50.6,38.4L1531.7,1195.1z M1611.2,1146.6l-48.8-30.6l31.3-6.8l49.6,22.9L1611.2,1146.6z M1594.4,1103.3c-0.2,0-0.4,0-0.6,0l-41.6-5.4l25.1-8.4l39.5,11.1L1594.4,1103.3z M1538.9,1096l-0.6,0l-45.8-7.9l31.1-20.7 l45.1,18.7L1538.9,1096z M1429.9,1078.9l-38.8,0.8l26.3-12.9l0.1-0.1l39.2-3.2L1429.9,1078.9z M1376.7,1079.9l-0.1,0.1l-37-1.1 l26-11.4l0.5-0.2l37.1-0.3L1376.7,1079.9z M1274.6,1066l41.8,14.9l-28.7,7.1l-42.3-12.6L1274.6,1066z M1196,1083.3l39.6,10.1 l-26.6,5.8l-39.7-9.4L1196,1083.3z M992.9,1170.9l44.9,26.6l-34.5,9.6l-44.8-29.7L992.9,1170.9z M950.6,1178.9l45.5,30.2l-35.1,10.7 l-45.5-32.7L950.6,1178.9z M907.4,1188.6l24.5,17.6l-12.5-6.1l-1.1-0.8c-0.5-0.4-1-0.6-1.6-0.6l-23.4-13.7L907.4,1188.6z M870.2,1178.2l42.9,38.4l-31.4-8.9l-42.4-41.5l30.6,11.8L870.2,1178.2z M878.8,1213.3l0.2,0.1l45.8,48.4l-34.4-9.1 c-0.2-0.2-0.4-0.4-0.7-0.5l-45.1-52.3L878.8,1213.3z M886.1,1257.6c0.4,0.4,0.9,0.7,1.5,0.9l0.1,0l47.2,49.1l-35.9-6.5l-47.8-54.5 l34.6,10.6L886.1,1257.6z M941.6,1314.4l47.2,39.2l-35.5-2.2l-46.9-43.4L941.6,1314.4z M996.8,1359.9l46.3,29l-34.7,1.1l-46-32.2 L996.8,1359.9z M1222.8,1431.5l-20.4-1.2l7.3-0.8l0,0c0,0,0,0,0,0l17.2,1.4L1222.8,1431.5z M1209.5,1423.3l-44.8-12l33.1-10l45.1,10 L1209.5,1423.3z M1197.2,1395.2l-47.5-15.1l34.8-13.9l47.4,16.2L1197.2,1395.2z M1234.2,1344.7l35.7-20.1l49,18.7l-35.8,20.8 L1234.2,1344.7z M1380.9,1359.8l-49.3-17.9l37.3-30l49.2,10.7L1380.9,1359.8z M1422.9,1317.8l-48.5-10.5l36.3-30.5l48.5,1.7 L1422.9,1317.8z M1464.5,1272.8l-46.6-1.6l34.3-26.7l46.7-6.2L1464.5,1272.8z M1505.8,1231.4l-41.8,5.5l28.8-18.2l0.6-0.3l41.9-10.1 L1505.8,1231.4z M1547.7,1199.3l-22,5.3l7.1-3.1c0.1,0,0.3-0.1,0.4-0.2l0.1-0.1l23.5-6.2L1547.7,1199.3z M1588.2,1180.7l-0.3,0.1 c-0.1,0-0.1,0-0.2,0.1l-38.3,10l22.5-14.5l28,2.4L1588.2,1180.7z M1687.1,1170.7c-0.2-0.1-0.4-0.1-0.7-0.1l-30.6,0.5l-37.5-20.8 l32-14.4l48.1,37.4L1687.1,1170.7z M1650.5,1129l-45.6-21.1l27-3.2l47.1,14.1L1650.5,1129z M1576.9,1083.2l-47.3-19.6l32-19.5 l47.5,17.2L1576.9,1083.2z M1468.9,1056.6l-36.4,3l23-11l0.9-0.3l36.6-4.4L1468.9,1056.6z M1415.4,1060.9l-35.7,0.2l24-10.7l0.6-0.3 l36-1.2L1415.4,1060.9z M1106.7,1086.2l40.3,5.5l-30.3,14.5l-39.9-9.4L1106.7,1086.2z M983.7,1126.2l44.5,23.6l-34.2,14.8 l-44.3-30.8L983.7,1126.2z M941.7,1135.4l44.7,31.1l-34.4,6.5l-44.4-35.2L941.7,1135.4z M899.3,1138.3l45.6,36.2l-35.5,8.3 l-45.4-39.7L899.3,1138.3z M856.7,1144.3l40.8,35.7l-22.1-5.5c-0.1,0-0.3,0-0.4-0.1l-0.1-0.1l-1-0.9c-0.2-0.2-0.4-0.3-0.6-0.4 l-40.2-21.7L856.7,1144.3z M830.9,1157l-1.8-0.7l-0.1-0.1c-0.2-0.2-0.4-0.4-0.6-0.5l-2.5-1.4L830.9,1157z M825.5,1160.9l42.2,41.4 l-32-12.6L794,1146L825.5,1160.9z M832.1,1194.9l46.3,53.7l-34.6-10.5l-46.1-57.1L832.1,1194.9L832.1,1194.9z M840.6,1243.4 l49.5,56.4l-37.8-5.3c-0.2-0.2-0.3-0.3-0.5-0.4l-49.1-59.7L840.6,1243.4z M895.9,1306.1l48.5,45L907,1350l-48.3-49L895.9,1306.1z M951.1,1357.2l47.7,33.4l-36.6,2.7l-47.6-37.2L951.1,1357.2z M1253.2,1407.8l-45.3-10.1l33.2-12.3l45,13.2L1253.2,1407.8z M1250.7,1382l32.8-11.4l45.9,17.2l-32.4,7.9L1250.7,1382z M1339.5,1391.5l43.3,14.3l-14.8,1.4c-0.1,0-0.2,0-0.3,0l-16.9,0.2 c-0.1,0-0.2-0.1-0.2-0.1l-40.3-8.7L1339.5,1391.5z M1397,1404.3l-50.5-16.6l35.8-21.4l50.6,16L1397,1404.3z M1438.8,1378.3 l-51.4-16.3l37.8-37.8l51.7,9.2L1438.8,1378.3z M1481,1328.2l-51.2-9.1l37.3-40.4l51.5,0.9L1481,1328.2z M1522.8,1273.9l-50-0.9 l35.9-36.1l50.3-5.8L1522.8,1273.9z M1564.7,1224.6l-47.4,5.5l32.2-25l47.6-8.7L1564.7,1224.6z M1606.9,1188.5c-0.1,0-0.3,0-0.4,0 l-35.6,6.5l18-8.4l0.5-0.1l33.9-5.8l0.8,0.1L1606.9,1188.5z M1705.9,1171.8l-49.2-38.2l31.5-11.2l49.7,31.8L1705.9,1171.8z M1694.9,1119.6l30.3-8.9l49.7,25.1l-31,15.1L1694.9,1119.6z M1725.4,1104.4c-0.1,0-0.2,0.1-0.3,0.1l-0.2,0.1l-46.9-7.6l29.8-17.2 l45,19.7L1725.4,1104.4z M1615.2,1057.5l-45.7-16.6l29.1-10.9l46.2,13.3L1615.2,1057.5z M1517.2,1033.1l-10,3.3c-0.1,0-0.2,0-0.3,0 l-24.8,3l10.2-3.5c0.3,0,0.6,0,0.9-0.1l0.4-0.1L1517.2,1033.1z M1453.6,1042.6c-0.1,0-0.2,0.1-0.3,0.1l-0.3,0.1l-35.3,1.1l23.4-10.8 l34.6,1.9L1453.6,1042.6z M1351.6,1017l-44.2-30.7l31.2-11l44.3,28.6L1351.6,1017z M933.3,1101.9l42,20.2l-31.7,7.2l-40.9-28 L933.3,1101.9z M891.7,1101.1l42.3,29l-33.4,2.2l-42.2-32.6L891.7,1101.1z M848.8,1099.3l44,33.9l-34.8,4.6l-43.8-37.2L848.8,1099.3 z M806.1,1101.2l45.3,38.4l-25.5,7.8l-4.2-2.2c-0.1,0-0.2-0.1-0.3-0.1l-22.7-9l-29-26L806.1,1101.2z M763.2,1112.2l19.5,17.5 l-5.3-2.1l-0.8-0.4c-0.3-0.1-0.6-0.2-0.9-0.3l-21.2-9.9L763.2,1112.2z M779.2,1139.7l42.3,44.2l-31.9-13l-42-45.5L779.2,1139.7z M785.4,1175.8c0.3,0.3,0.7,0.5,1,0.6l0.2,0.1l47.9,59.3l-38-9l-48.3-62.2L785.4,1175.8z M739.3,1162.6l49.4,63.5l-39.4-2.5 l-49.8-55L739.3,1162.6z M793.6,1232.5l50.4,61.2l-39,0.1l-50.6-63.8L793.6,1232.5z M849.4,1299.7l50.1,50.9l-39.1,3.6l-50-54.4 L849.4,1299.7z M905.1,1356l49.4,38.7l-38.7,7.6l-49.2-42.6L905.1,1356z M1133.2,1460.3l0.1,0l46.7-1.8l-36.4,25.1l-46.7-3.7 L1133.2,1460.3z M1249.9,1442.5c-0.1,0-0.2,0-0.2,0l-38.7,6.2l23.9-10.3l1.7-0.2c0.8-0.1,1.5-0.5,2-1.1l21.8-5.1l5.2-0.8 c0.7-0.1,1.2-0.4,1.7-0.8l10.1-2.4L1249.9,1442.5z M1310.7,1414.7l-42.2-5l28.5-7.9l35.6,7.8L1310.7,1414.7z M1430.2,1403.7 c-0.1,0-0.3,0-0.5,0l-23,1.7l33.9-20.7l49.9,11.6l-18.9,11.8L1430.2,1403.7z M1436.7,1410.4l-8.3-0.6l1.9-0.1L1436.7,1410.4z M1496.8,1391.9l-51.6-12.1l38.4-45.5l51.8,6.3L1496.8,1391.9z M1539.3,1335.4l-51.7-6.3l37.8-48.9l51.8,2L1539.3,1335.4z M1581.8,1276.4l-52.2-2l37.3-44.1l52.3,0.3L1581.8,1276.4z M1624.4,1224.8l-51.1-0.3l34.4-30l51.1,1.8L1624.4,1224.8z M1721.4,1178.8c-0.3-0.5-0.8-0.8-1.4-1.1l-7.4-2.9l30.9-17l49.3,25.8l-27,10l-19.7-9.1c-0.3-0.1-0.5-0.2-0.8-0.2l-2.7-0.4 L1721.4,1178.8z M1809.1,1183.3l29.1-12.7l49.1,12.2l-29.3,13.4L1809.1,1183.3z M1954.9,1207.9l-51.4-25.5l30.1-11.2l51.6,24.1 L1954.9,1207.9z M1933.7,1164.9l-46.4-10.6l24.3-7.2l46.7,9.7L1933.7,1164.9z M1763.6,1097.5l-48.2-21.2l28.9-13.5l46.4,30.8 L1763.6,1097.5z M1707.6,1072.9l-47.3-29.6l29.8-8.9l47.8,24.4L1707.6,1072.9z M1653.6,1039.3l-41.8-12l24-4.6l0,0l42.8,9.1 L1653.6,1039.3z M1388.8,1000.9l-44.3-28.7l31.9-17.5l44.7,20.6L1388.8,1000.9z M1201.5,935.5l42.9,18.6l-31.9,19.3l-42.9-19.3 L1201.5,935.5z M1006.8,1049.7l40,17l-30.3,7.1l-40.1-15.5L1006.8,1049.7z M966.9,1060.9l39.5,15.3l-30.6,7.4l-39.4-15.7 L966.9,1060.9z M925.8,1070.3l40.4,16.1l-31.9,9.4l-40.3-19.4L925.8,1070.3z M883.8,1078l36.9,17.7l-26.9-0.5l-36.6-18.8L883.8,1078 z M842.2,1075.6l37.2,19.1l-29.4-1.2l-37.1-20.3L842.2,1075.6z M799.3,1072.1l39.7,21.7l-31.9,1.3l-39.5-22.9L799.3,1072.1z M733.2,1119.3l44.4,48l-35.8-10.7c-0.2-0.1-0.5-0.1-0.8-0.1l-45.3-28.7L733.2,1119.3z M693,1170l49.4,54.5l-41,7.6l-49.5-46 L693,1170z M971.4,1445.3l49.5,22.2l-39.8,21l-49.5-29.9L971.4,1445.3z M1027.9,1470.5l50.7,13.2l-39.8,29.4l-50.5-21.7 L1027.9,1470.5z M1085.4,1485.4c0.6,0.1,1.2,0,1.8-0.3l0.7-0.4l49.9,4l-41.3,37.4l-51.3-11L1085.4,1485.4z M1556.2,1392.4l-52.3-0.1 l38.3-50.8l52.3,2.6L1556.2,1392.4z M1599.1,1338.5l-52.8-2.6l38.3-53.7l53,5.2L1599.1,1338.5z M1641.7,1282l-52.7-5.3l37.4-45.8 l52.7,11.9L1641.7,1282z M1767.1,1211.8c-0.5-0.4-1.1-0.7-1.8-0.7l-44.1-24.9l19,3l3.7,0.9l39.9,27.6l-16.4-5.7L1767.1,1211.8z M1805,1225.1c-0.1-0.1-0.2-0.1-0.3-0.2l-30.8-21.3l7.2,3.3l25.8,19.1L1805,1225.1z M1842,1244.8l-31.4-23.3l8.3,4.2l43.8,21.4 L1842,1244.8z M1826.3,1222.7l32.2-19.9l52.2,26.2l-32,19.2L1826.3,1222.7z M1916.8,1232c0.2,0,0.3,0.1,0.5,0.1l51.7,20.5l-31,16.9 l-52.5-18.7L1916.8,1232z M1976.4,1249.1c-0.2,0-0.3,0-0.5,0l-50.7-20.1l30.5-14.5l50.9,20.6L1976.4,1249.1z M2013.6,1231.7 l-50.5-20.4l29.4-12.2l50.5,20L2013.6,1231.7z M1799.9,1092l-48.5-32.1l29.6-10.4l48.6,30L1799.9,1092z M1690.4,1028.3l-35.4-7.6 l17.5-1.8l36.9,5.9L1690.4,1028.3z M1375.1,947.8l-44-16.3l33.4-40.9l44.1,17.2L1375.1,947.8z M1325.3,929.5l-43.3-12.4l33.2-39.6 l43.4,11.3L1325.3,929.5z M1228.3,910.7l32.9,7.5l-21.6,3.3l-33.5-5.9L1228.3,910.7z M1190.8,919l32.6,5.7l-21.8,4.4l-32.3-6 L1190.8,919z M1153.7,926.1l39.6,7.4l-30.5,17.8l-39.6-8.8L1153.7,926.1z M1115.7,946.8l41.2,9.1l-32.6,26.9l-41.1-10.4 L1115.7,946.8z M957.5,1016.7l42.5,28.9l-32.4,9.1l-42.9-23.8L957.5,1016.7z M835.5,1058l31.4,13l-23.2-1.4l-32.3-11L835.5,1058z M794.1,1059.1l25,8.5l-18.8-1.5l-2.1,0l-26.1-5.1L794.1,1059.1z M751.7,1062.7l17.7,3.5l-12.1,0c-0.2,0-0.4,0.1-0.6,0.1l-0.2,0 l-18.8-3L751.7,1062.7z M704.3,1079.9l-15.3,8l-5.5-2.6c-0.7-0.3-1.5-0.4-2.2-0.1l-0.2,0.1l-45.4,3.7c0.2,0,0.4-0.1,0.6-0.2 l29.6-14.5L704.3,1079.9z M681.6,1091.5l5.6,2.6l38.5,20.5l-37.8,8.6l-44.1-18.7L681.6,1091.5z M463.5,1137.2l9.2-5.9l18.6-9.4 l42.1,18.3l-39.2,15l-41.8-11.9L463.5,1137.2z M541.1,1143.5l43.9,19l-39,15.2l-43.8-19.2L541.1,1143.5z M868.3,1426.3l50.4,31 l-41.4,22.5l-50.4-30.3L868.3,1426.3z M1419.1,1467.8l-54.7-38.3l37.4-10.8l54.9,35.8L1419.1,1467.8z M1464,1452.1l-52.2-34l34-1.2 l52.5,31L1464,1452.1z M1507.9,1446.7l-50.7-30l32.4-0.6l0.6,0.1l51.5,21.3c0.1,0,0.3,0.1,0.4,0.1L1507.9,1446.7z M1617.6,1380.5 l-52.7,10.3l36.8-46.2l52.2,6.1L1617.6,1380.5z M1659.8,1345.6l-54.1-6.3l38.4-50.9l53.9,15.2L1659.8,1345.6z M1786.5,1256.7 l-52.5-37.4l29.7-2.2c0.1,0.1,0.2,0.1,0.4,0.2l0.5,0.2l50.1,43.5L1786.5,1256.7z M1825.8,1262.7l-46.4-40.2l22.4,7.7l44.6,41.3 L1825.8,1262.7z M1822.3,1241.1l17.1,9.2l44.4,36.9l-18.5-7.2l-1.4-0.9c-0.2-0.1-0.3-0.2-0.5-0.3l-0.7-0.3L1822.3,1241.1z M1960.7,1299c-0.4,0-0.8,0.1-1.1,0.3l0,0l-59.3-5.7l-9.8-3.8c0.2-0.1,0.4-0.3,0.5-0.5c1-1.3,0.9-3.2-0.4-4.2l-40.4-33.5l27.8,3.1 c0.2,0,0.4,0,0.6,0l53,18.9l-25,14.9c-1.4,0.8-1.8,2.6-1,4c0.5,0.9,1.5,1.4,2.5,1.4c0.5,0,1-0.1,1.6-0.3l29.3-17.6l51.6,8.7 l-29.3,14.3L1960.7,1299z M2078.5,1279.3l6.6-0.6l-29.5,8.5L2078.5,1279.3z M2117,1275.6l6.6-0.1l-21,4.3L2117,1275.6z M2078.5,1273.4c-0.5-0.1-1-0.1-1.5,0.1l-1.6,0.5l-30.3,7.2l-32.1-0.7l25.3-11.7l0.7-0.3l46,4.3L2078.5,1273.4z M2037.6,1262.5 l-51.9-11.5l28.2-13.1l52.1,12.7l-27.9,11.9L2037.6,1262.5z M2074.8,1246.9l-52.2-12.8l28-12l0,0c0.1,0,0.2,0.1,0.3,0.1l51.5,13.3 L2074.8,1246.9z M2087.7,1199.8l-50.7-19l28.3-11.3l50.8,17.7L2087.7,1199.8z M1673.4,1013.1l-0.1,0c-0.1,0-0.3,0-0.4,0l-44.6-0.8 l27.7-18.6l41,17.4L1673.4,1013.1z M1362.3,884l-43.5-11.3l33.4-45.7l43.6,11.2L1362.3,884z M1312.6,871.3l-41.9-6.8l33.1-43.1 l41.9,4.6L1312.6,871.3z M1218.4,864l41,4.7l-32.3,35.7l-40.9-8.6L1218.4,864z M1180.6,900.6l33.6,7.1l-23.8,5.4l-34.8-2 L1180.6,900.6z M1143,916.3l23.2,1.3l-13.2,2.5l-23.9-0.6L1143,916.3z M1106,924.8l0.3-0.1l35.8,0.9l-27.8,15l-35.9-2.4L1106,924.8z M1067.8,943.3l39.4,2.7l-31,24.4l-39.2-15.1L1067.8,943.3z M1028.2,958.4l39.4,15.2l-30,9.5L998.5,964L1028.2,958.4z M909.7,985.3 l42.3,27.4l-33.6,14.6L876,997.9L909.7,985.3z M869.4,1000.4l42.8,29.8l-34.8,15.8l-42.7-29.2L869.4,1000.4z M828.1,1019.4 l41.1,28.1l-32.6,4.4l-40.9-31.3L828.1,1019.4z M786.5,1020.9l41,31.4l-31.8,0.8l-41.1-31.9L786.5,1020.9z M745.1,1021.4l41.6,32.4 l-34.6,2.9l-41.8-27.3L745.1,1021.4z M703,1031.5l39.5,25.7l-33.6,1.6l-39.7-10.8L703,1031.5z M619.4,1081.1l27.5-4.1l-13.2,6.5 c-1.5,0.7-2.1,2.4-1.4,3.9c0.5,1,1.4,1.6,2.5,1.7l-2.8,0.2l-20.8-3.6L619.4,1081.1z M631.4,1095.1c0.2,0,0.4,0,0.7,0l27.2-2.3 l-23.8,8.3l-24.2-9.4L631.4,1095.1z M584.8,1087.6l42.7,16.6l-38,14.5l-42.6-18.2L584.8,1087.6z M440.7,1138.4l-2.1,1.3l-5.4,0.1 L440.7,1138.4z M351.4,1165.1l33-2.3l-35.4,21.6l-32.8,3L351.4,1165.1z M305.4,1194.4l35.3-3.3l-37.3,30.7l-35.3,2.5L305.4,1194.4z M259.4,1230.9l37-2.6l-39.2,36.4l-37.2-0.3L259.4,1230.9z M349.1,1204.7l-28.8,10.8l31-25.5c0,0,0,0,0.1,0l29.2-11.2l-30.8,25.4 L349.1,1204.7z M398.2,1172l3.1-1.9l-5.7,4.6l-0.5,0.4l-2.9,1.9L398.2,1172z M398.8,1179.6l19.3-13.8l-23,23.1l-18.9,13.8 L398.8,1179.6z M445.3,1147.4l39.9,11.3l-39.9,15.3c-0.1,0-0.3,0.1-0.4,0.2l-36.7,10.4L445.3,1147.4z M545.9,1184l45.9,20.1 l-41,19.5l-45.9-23.7L545.9,1184z M877.2,1486.6l50.9,26.9l-42,28.3l-50.7-23.4L877.2,1486.6z M992,1556.7l52,22l-41.7,26.9 l-52-25.5L992,1556.7z M1115.2,1589.7l43.3-51.9l54.2,16.2l-43.3,55L1115.2,1589.7z M1218.3,1556.5l56.5,38.4l-43.6,52.3l-56.5-35.5 L1218.3,1556.5z M1232,1655.1l56.3,47.7l-12.3,4.6c-0.8,0.3-1.3,0.9-1.7,1.6l-61.3-23.3c-0.4-0.1-0.7-0.2-1.1-0.2l-7.2-1.4 L1232,1655.1z M1293.2,1707l12.2,10.9l-23.9-6.4L1293.2,1707z M1293.9,1699.7l-57.9-49.1l43.5-52l57.8,56.7L1293.9,1699.7z M1469.4,1457.3l37.1-4.6c0.3,0.2,0.7,0.4,1,0.4l58.4,7.6l-40.6,59.8L1469.4,1457.3z M1569.5,1455.2l-47.7-6.2l31-8.2 c0.2-0.1,0.5-0.2,0.7-0.3l50.8-28.9L1569.5,1455.2z M1614.6,1399.1l-40.1,22.8l22.6-20.9l0.2-0.1l36-14.9L1614.6,1399.1z M1659.8,1368c-0.4,0-0.9,0.2-1.3,0.4l-5.5,3.1c-0.2,0-0.4,0-0.6,0l-13.8,2.5c-0.2,0-0.3,0-0.5,0.1l-6.2,2.3l29.9-24.5l33.1,11.8 l-28.4,4.1L1659.8,1368z M1722.8,1366.1l-0.2,0c-0.1,0-0.2,0.1-0.3,0.1l-0.1,0l-0.9,0c-0.5-0.4-1.2-0.7-2-0.7l-2.1,0.1l-0.3-0.1 c-0.3-0.4-0.8-0.7-1.3-0.9l-49.3-17.5l37.8-41.5l55,30.4L1722.8,1366.1z M1764.4,1332.4l-55.7-30.7l36.1-27l54.8,40.9L1764.4,1332.4 z M1751.4,1272.3l33-9.5l53.6,47.7l-31.8,2.8L1751.4,1272.3z M1794.8,1263.9l27.9,4.2l50.5,47.6l-26.9-6L1794.8,1263.9z M1880.5,1314.4l-42.6-40.1l21.3,9.1l0.9,0.8c0.2,0.3,0.6,0.5,0.9,0.6l2.2,0.9l50.6,33.9l-29.9-1.4l-2.8-0.6 C1881.6,1316.4,1881.4,1315.2,1880.5,1314.4z M1949.2,1313.9l-1.3,0.4c-0.3-0.1-0.7-0.1-1.1,0l-6.1,1.1l19.9-10l0.1,0 c0.6,0,1.1-0.1,1.6-0.3l0.8-0.4l16.9-1.2l-8.7,3.1l-20.1,6.8L1949.2,1313.9z M2099,1268.2l-48.6-4.5l25.4-10.8l0.1,0l47.8,6.5 L2099,1268.2z M2136.8,1254.9c-0.4,0-0.8,0.1-1.2,0.2l-0.1,0l-49-6.7l25.5-10.5l49,8.3L2136.8,1254.9L2136.8,1254.9z M2122.4,1233.5 l26.1-11l50.7,10l-25.7,9.7L2122.4,1233.5z M2147.7,1215.7l-51.2-13.5l27.7-12.3l51.1,13.5L2147.7,1215.7z M2132.1,1186.2l27.7-13.2 l52.5,6.3l-29,20.3L2132.1,1186.2z M2280.9,1190.1l-54.6-14.5l31.3-29.3l54.8,13.9L2280.9,1190.1z M2219.2,1174.2l-52.1-6.2l30.1-24 l52.4,1.7L2219.2,1174.2z M2159.2,1166.7l-50.1-15.9l28.2-12.9l51.6,5.1L2159.2,1166.7z M2100.9,1148.2l-49.9-16.7l27-10.3 l50.3,14.4L2100.9,1148.2z M1928.2,1092.6l-48.8-28.2l28.8-10.7l49.1,25.8L1928.2,1092.6z M1762.6,1017.3L1762.6,1017.3l-46-6.1 l28.8-19.1l43.8,20.2L1762.6,1017.3z M1399.7,832.9l-43.6-11.2L1389,776l43.7,12.2L1399.7,832.9z M1349.9,820.3l-41.9-4.5l32.4-43.9 l42,3.3L1349.9,820.3z M1301,815.2l-40.7-1l31.7-40l40.9-2.1L1301,815.2z M1207.6,819.4c0.1,0,0.2-0.1,0.3-0.1l40.1,0.6l-32,38 l-40.3-5L1207.6,819.4z M1170.8,858.1l40.1,4.9l-31.5,31.2l-40.1-10.2L1170.8,858.1z M980.7,931.8l39.3,22.1l-30.6,5.7l-39.7-14.9 L980.7,931.8z M941.5,948l37.2,13.9l-28.6,6l-36.9-16.3L941.5,948z M901.7,953.2l39.1,17.2l-30.5,8.4l-38.8-21.1L901.7,953.2z M861.8,959.1C861.9,959.1,861.9,959.1,861.8,959.1l41.2,22.5l-33,12.3l-41.1-26.3L861.8,959.1z M821.7,969.7l42,26.9l-34.3,16.2 l-42.1-29.4L821.7,969.7z M780.3,985.8l40.1,28l-32,1.2l-40.2-28L780.3,985.8z M738.5,987.4l39.9,27.8l-31.5,0.3 c-0.3-0.1-0.6-0.2-0.9-0.2l-39.8-24.2L738.5,987.4z M613.9,1036l40.7,13.6l-36.9,25.6l-40.2-9.5L613.9,1036z M571.8,1070.3l38.6,9.1 l-5.4,3.1c-0.8,0.4-1.2,1.1-1.4,1.9l-18.3-3.1c-1.1-0.2-2.1,0.2-2.7,1l-42,14.3L571.8,1070.3z M468.5,1124.1l-11.6-3.5l20.6-1.1 L468.5,1124.1z M439.6,1121.5l21.5,6.5l-6.5,3.5c0,0-0.1,0-0.1,0l-12.9,0.6l-30.4-8.1L439.6,1121.5z M394.2,1125.6l34.5,9.1l-31.8,6 l-1.1,0l-34.1-7.7L394.2,1125.6z M258.1,1186.4l39.1,6.8l-39.6,31.9l-38.9-7.3L258.1,1186.4z M212.6,1222.7l38.9,7.2l-40.2,34 l-38.9-9.8L212.6,1222.7z M212.8,1270.2l37.8,0.3l-39.5,35.1l-38.4-6.1L212.8,1270.2z M352.3,1210l2.1-1.8l22.2-14.3l-28.4,29l0,0 l-23.3,14.3L352.3,1210z M399.4,1193.5l0.4-0.4l35.6-10.1l-37.6,34.9c-0.1,0-0.3,0.1-0.4,0.2l-33.4,16.1L399.4,1193.5z M447,1180.3 l44.6,19.8l-42.7,27.2l-43.6-8.3L447,1180.3z M716.8,1430.1l50.3,51l-42.1,4.5l-50.4-21.5L716.8,1430.1z M735.8,1490.4l37.1-3.9 l44.1,28.2l-36.2-4.3l-0.3-0.1L735.8,1490.4z M828.9,1522.2l48.8,22.5l-39.6,10.4l-47.9-37.6L828.9,1522.2z M906.6,1608.6l37.6-24.9 l45.4,22.2l-35.3-0.2c-0.3,0-0.6-0.1-0.8,0l-0.1,0L906.6,1608.6z M1002,1612l45,24.2l-32.9-3.9l-45.9-20.5L1002,1612z M1061.4,1643.9l43.8,22.1l-30.4-4.4l-44.4-21.3L1061.4,1643.9z M1198.1,1688.8c0.1,0,0.2,0,0.3,0.1l12.5,2.4l21.7,9l-33.7-6.7 l-0.1-0.1l-21.4-8.8L1198.1,1688.8z M1259.4,1711.5l0.6,0.2c0.2,0,0.3,0.1,0.4,0.1l0.1,0l30.5,18.4l-43.8-11.2l-30.6-16.1 L1259.4,1711.5z M1310.3,1735.1l-0.2,0l-29.8-17.9l44.6,12l25.6,14.5L1310.3,1735.1z M1327.5,1723.9c-0.2-0.1-0.5-0.2-0.7-0.3 l-8.7-2.3c-0.1-0.1-0.2-0.2-0.2-0.3l-19.8-17.6l43.1-44.1l58.7,63.8l-31.3,24.1L1327.5,1723.9z M1497,1638.1l-58-65.2l41.6-25.7 l59,26.1L1497,1638.1z M1542.9,1568.4l-55-24.3l37.4-15.7c0.1,0,0.1,0,0.2,0c0.4,0,0.8-0.1,1.1-0.3l56.4-24.1L1542.9,1568.4z M1588.4,1495.4l-55.1,23.5l39.6-58.3l55.3-23.6L1588.4,1495.4z M1634.5,1428l-54.2,23.2l37.1-46.4l54-15.1L1634.5,1428z M1679.9,1381.1l-48.9,13.7l21.9-15.3c0.3-0.1,0.5-0.4,0.7-0.6l0.3-0.4l0,0c0.1,0,0.2-0.1,0.3-0.1l4-1.8c0.2-0.1,0.3-0.2,0.5-0.3 l2.6-1.8l7-1l37.4-1.5L1679.9,1381.1z M1761.4,1381.6l3.5,0.6l16.2,11.6l-29.7-14.8L1761.4,1381.6z M1766.9,1376.5 c-0.1,0-0.2-0.1-0.4-0.1l-4.1-0.8c0,0-0.1,0-0.1,0l-32-8.1l34.3-28.4l51.5,28.5c0.4,0.3,0.9,0.4,1.4,0.4c1,0,2-0.6,2.6-1.6 c0.7-1.4,0.2-3.2-1.2-4l-48-26.5l34.3-16.3l52.3,32.3l-13.2,6.1c-0.7,0.4-1.3,1-1.5,1.8l-47.2,19.2c-0.3,0.1-0.5,0.3-0.7,0.4 l-0.5-0.1L1766.9,1376.5z M1900,1332.6l-24.1-10.1l7.1,1.6c0.2,0.1,0.3,0.1,0.5,0.1l33.1,1.6L1900,1332.6z M2162.7,1268.9l-46.8-0.5 l20.5-7.3c0.3,0,0.6,0,0.9-0.2l0.2-0.1l44.4,3.2L2162.7,1268.9z M2199.6,1259.4l-48.4-3.5l21.5-7.7l0.8,0.1c0.5,0.1,1,0.1,1.5-0.1 l0.2-0.1l44.9,5.7L2199.6,1259.4z M2209.5,1228.5l-52-10.3l27.5-12.3l51.6,11.4L2209.5,1228.5z M1386.6,769.6l-41.8-3.2l32-39.8 l41.9,3.1L1386.6,769.6z M1337.5,766l-40.2,2.1l31.2-36.9l40.2-4.2L1337.5,766z M1160.8,816.3l39,2.8l-30.9,32.4l-39.1-6.9 L1160.8,816.3z M933.3,903.3l41,24.7l-31.9,13.4l-40.9-29L933.3,903.3z M894.3,914.7l39.8,28.3l-31.3,4.1l-40.3-19.5L894.3,914.7z M733.3,954.2l39,25.9l-31.9,1.3l-39.3-22.1L733.3,954.2z M119.6,1233.6l40.1,21.8l-40.8,20.9l-40.3-25L119.6,1233.6z M306.5,1255.5 l27.9-17.2l-32.1,35.8l-28.5,15L306.5,1255.5z M305.6,1279.7c0.1-0.1,0.2-0.1,0.3-0.2l24.4-16.9l-29,33.2c-0.1,0.1-0.2,0.2-0.3,0.4 l-27,16.7l30.2-32.4L305.6,1279.7z M350.2,1248.7l2.2-1.5c0.2-0.2,0.3-0.3,0.5-0.5l1.1-1.3l33.7-16.3l-38,44l-35.2,16.4 L350.2,1248.7z M612.9,1405.1l50.8,58.3l-43.6,12.3l-50.3-31.9L612.9,1405.1z M668.7,1468l12.8,5.5l-4.6-1.3l-2.2-0.8 c-0.4-0.2-0.9-0.2-1.3-0.2l-23.2,2.1L668.7,1468z M778.2,1515.8l0.3,0.1l44,34.5l-33.6-10.9l-43.7-36L778.2,1515.8z M836,1561 l51,47.2l-37.9-4.4l-1.7-0.2l-50.4-55.1L836,1561z M953.3,1611.8l45.9,20.5l-35-0.4l-46.7-16.2L953.3,1611.8z M1012.6,1638.3 l42.8,20.6l-26.2-3.8l-2.1-0.4l-2.7-0.6c-0.1,0-0.3,0-0.4-0.1l-43.4-16.1L1012.6,1638.3z M1115.7,1675l9.7,1.2 c0.3,0.1,0.5,0.1,0.7,0.1c0,0,0,0,0.1,0l21.1,2.6l0.4,0.1l19.2,7.9l-31.4-6.6l-17.1-4.4c-0.1-0.1-0.2-0.1-0.4-0.1l-0.2,0 L1115.7,1675z M1185.1,1699.1c-0.1,0-0.1-0.1-0.2-0.1l-14.9-5.7l26.4,5.6l18.8,9.9L1185.1,1699.1z M1421.7,1774l-45.3-23.4 c-0.3-0.3-0.7-0.6-1.1-0.8l-0.2-0.1l29.4-22.6l56.6,35.2L1421.7,1774z M1560.6,1632.5l-57.1,6.6l42.5-64.5l57.2-10.7L1560.6,1632.5z M1607.5,1557.2l-57.3,10.7l42-67.5l57.6-8.6L1607.5,1557.2z M1654.4,1485.3l-57.8,8.6l41.3-60.5l57.8,0.2L1654.4,1485.3z M1701,1427.8l-57.9-0.2l38.6-40.1l56.7,21.7L1701,1427.8z M1830.1,1421.5l-53.1-37.9l1.6,0.1l29.2,2.9l57.8,7.5L1830.1,1421.5z M1872.3,1389l-55-7.1l33.7-19l56.2-3L1872.3,1389z M1914.8,1353.5l-50.5,2.7l28-13.9l52.7-10.8L1914.8,1353.5z M1956.7,1323 l-36.7,7.5l10.1-4.2c0.4-0.1,0.8-0.2,1.2-0.5l1.2-0.5c0.2,0,0.4-0.1,0.6-0.1l17.9-5.7l4.5-1.2l18.9-5.8c-0.3,0.2-0.5,0.4-0.7,0.7 L1956.7,1323z M2228.5,1268.5c-0.2,0-0.4-0.1-0.6-0.1l-41.1,0.3l13.4-3.4l34.9,2.3L2228.5,1268.5z M2272.5,1239.6 c-0.2,0-0.4,0-0.6,0l-51.5-9.2l25.6-10.5l51.3,11.6l-24.5,8.1L2272.5,1239.6z M2405.9,1235.1l-55.9-18.7l29.4-21.5l53.4,31.6 L2405.9,1235.1z M2440.1,1223.9l-55.3-32.7l30-20.4l54.3,39.4L2440.1,1223.9z M1233.5,745.2l37.8-4.7l-29.7,31.9l-37.8,1.2 L1233.5,745.2z M259,1304c0.2-0.1,0.4-0.1,0.6-0.2l29.3-15.3l-33.4,35.7l-31,11.7L259,1304z M652.8,1479.1l20.4-1.8l13.2,4.9 L652.8,1479.1z M2335.8,1252.5c-0.3,0-0.5,0-0.8,0l-0.1,0l-50.2-10.4l23.8-7.9l49.3,13.4L2335.8,1252.5z" fill="#fff"/></g></svg>